2022-10-19 09:17:17,264 [main] INFO  [com.suke.axsc.web.WebApplication] StartupInfoLogger.java:55 - Starting WebApplication using Java 1.8.0_77 on USERCHI-SALSHQ8 with PID 6560 (E:\github\push-stream\web-app\target\classes started by Administrator in E:\github\push-stream)
2022-10-19 09:17:17,278 [main] INFO  [com.suke.axsc.web.WebApplication] SpringApplication.java:634 - No active profile set, falling back to 1 default profile: "default"
2022-10-19 09:17:18,039 [main] INFO  [o.s.boot.web.embedded.tomcat.TomcatWebServer] TomcatWebServer.java:108 - Tomcat initialized with port(s): 8055 (http)
2022-10-19 09:17:18,047 [main] INFO  [org.apache.coyote.http11.Http11NioProtocol] DirectJDKLog.java:173 - Initializing ProtocolHandler ["http-nio-8055"]
2022-10-19 09:17:18,049 [main] INFO  [org.apache.catalina.core.StandardService] DirectJDKLog.java:173 - Starting service [Tomcat]
2022-10-19 09:17:18,049 [main] INFO  [org.apache.catalina.core.StandardEngine] DirectJDKLog.java:173 - Starting Servlet engine: [Apache Tomcat/9.0.65]
2022-10-19 09:17:18,166 [main] INFO  [o.a.c.core.ContainerBase.[Tomcat].[localhost].[/]] DirectJDKLog.java:173 - Initializing Spring embedded WebApplicationContext
2022-10-19 09:17:18,167 [main] INFO  [o.s.b.w.s.c.ServletWebServerApplicationContext] ServletWebServerApplicationContext.java:292 - Root WebApplicationContext: initialization completed in 857 ms
2022-10-19 09:17:18,851 [main] INFO  [o.s.b.a.web.servlet.WelcomePageHandlerMapping] WelcomePageHandlerMapping.java:53 - Adding welcome page: class path resource [static/index.html]
2022-10-19 09:17:18,914 [main] INFO  [c.s.a.common.push.util.ApplicationContextRegister] ApplicationContextRegister.java:27 - ApplicationContext register-->org.springframework.boot.web.servlet.context.AnnotationConfigServletWebServerApplicationContext@749c877b, started on Wed Oct 19 09:17:17 CST 2022
2022-10-19 09:17:19,171 [main] INFO  [org.yeauty.standard.ServerEndpointExporter] ServerEndpointExporter.java:131 - [34mNetty WebSocket started on port: 8056 with context path(s): '/websocket/{sid}' .[0m
2022-10-19 09:17:19,174 [main] INFO  [org.apache.coyote.http11.Http11NioProtocol] DirectJDKLog.java:173 - Starting ProtocolHandler ["http-nio-8055"]
2022-10-19 09:17:19,183 [main] INFO  [o.s.boot.web.embedded.tomcat.TomcatWebServer] TomcatWebServer.java:220 - Tomcat started on port(s): 8055 (http) with context path ''
2022-10-19 09:17:19,192 [main] INFO  [com.suke.axsc.web.WebApplication] StartupInfoLogger.java:61 - Started WebApplication in 2.296 seconds (JVM running for 2.769)
2022-10-19 09:17:19,194 [main] INFO  [com.suke.axsc.web.WebApplication] WebApplication.java:20 - æ¨æµæœåŠ¡å¯åŠ¨æˆåŠŸï¼šhttp://localhost:8055/index.html
2022-10-19 09:17:22,347 [http-nio-8055-exec-1] INFO  [o.a.c.core.ContainerBase.[Tomcat].[localhost].[/]] DirectJDKLog.java:173 - Initializing Spring DispatcherServlet 'dispatcherServlet'
2022-10-19 09:17:22,347 [http-nio-8055-exec-1] INFO  [org.springframework.web.servlet.DispatcherServlet] FrameworkServlet.java:525 - Initializing Servlet 'dispatcherServlet'
2022-10-19 09:17:22,348 [http-nio-8055-exec-1] INFO  [org.springframework.web.servlet.DispatcherServlet] FrameworkServlet.java:547 - Completed initialization in 0 ms
2022-10-19 09:17:22,716 [http-nio-8055-exec-8] INFO  [com.zaxxer.hikari.HikariDataSource] HikariDataSource.java:110 - HikariPool-1 - Starting...
2022-10-19 09:17:22,740 [nioEventLoopGroup-4-1] INFO  [com.suke.axsc.web.component.NettyWebSocketServer] NettyWebSocketServer.java:73 - NettyWebSocket[64259],è¿æ¥æˆåŠŸ
2022-10-19 09:17:22,895 [http-nio-8055-exec-8] INFO  [com.zaxxer.hikari.HikariDataSource] HikariDataSource.java:123 - HikariPool-1 - Start completed.
2022-10-19 09:28:55,724 [defaultEventExecutorGroup-2-1] INFO  [com.suke.axsc.common.push.util.ExecUtil] ExecUtil.java:87 - ä»»åŠ¡IDï¼šlive1,ä½¿ç”¨è¾“å‡ºçº¿ç¨‹ï¼šThread-12
2022-10-19 09:28:55,724 [Thread-12] INFO  [com.suke.axsc.common.push.handler.OutHandler] OutHandler.java:100 - live1å¼€å§‹æ¨æµï¼
2022-10-19 09:28:55,724 [defaultEventExecutorGroup-2-1] INFO  [com.suke.axsc.common.push.handler.TaskHandlerImpl] TaskHandlerImpl.java:39 - live1 æ‰§è¡Œå‘½ä»¤è¡Œï¼šJ:/rtsp_live/ffmpeg-master-latest-win64-gpl/bin/ffmpeg -fflags +genpts -rtsp_transport tcp -thread_queue_size 16 -i rtsp://admin:admin172839@192.168.0.209:1024/Streaming/Channels/101 -vcodec copy -f flv -an -s 640x480 rtmp://127.0.0.1:1935/hls/live1
2022-10-19 09:28:55,726 [defaultEventExecutorGroup-2-1] INFO  [com.suke.axsc.web.component.NettyWebSocketServer] NettyWebSocketServer.java:124 - NettyWebSocket[64259],è®¢é˜…[1]ç›´æ’­
2022-10-19 09:28:55,785 [Thread-12] INFO  [com.suke.axsc.web.handler.CustomOutHandlerMethod] CustomOutHandlerMethod.java:59 - live1æ—¥å¿—ï¼šffmpeg version N-108404-gc03f9654c9-20220927 Copyright (c) 2000-2022 the FFmpeg developers
2022-10-19 09:28:55,785 [Thread-12] INFO  [com.suke.axsc.web.handler.CustomOutHandlerMethod] CustomOutHandlerMethod.java:59 - live1æ—¥å¿—ï¼š  built with gcc 12.1.0 (crosstool-NG 1.25.0.55_3defb7b)
2022-10-19 09:28:55,786 [Thread-12] INFO  [com.suke.axsc.web.handler.CustomOutHandlerMethod] CustomOutHandlerMethod.java:59 - live1æ—¥å¿—ï¼š  configuration: --prefix=/ffbuild/prefix --pkg-config-flags=--static --pkg-config=pkg-config --cross-prefix=x86_64-w64-mingw32- --arch=x86_64 --target-os=mingw32 --enable-gpl --enable-version3 --disable-debug --disable-w32threads --enable-pthreads --enable-iconv --enable-libxml2 --enable-zlib --enable-libfreetype --enable-libfribidi --enable-gmp --enable-lzma --enable-fontconfig --enable-libvorbis --enable-opencl --disable-libpulse --enable-libvmaf --disable-libxcb --disable-xlib --enable-amf --enable-libaom --enable-libaribb24 --enable-avisynth --enable-libdav1d --enable-libdavs2 --disable-libfdk-aac --enable-ffnvcodec --enable-cuda-llvm --enable-frei0r --enable-libgme --enable-libkvazaar --enable-libass --enable-libbluray --enable-libjxl --enable-libmp3lame --enable-libopus --enable-librist --enable-libssh --enable-libtheora --enable-libvpx --enable-libwebp --enable-lv2 --enable-libmfx --enable-libopencore-amrnb --enable-libopencore-amrwb --enable-libopenh264 --enable-libopenjpeg --enable-libopenmpt --enable-librav1e --enable-librubberband --enable-schannel --enable-sdl2 --enable-libsoxr --enable-libsrt --enable-libsvtav1 --enable-libtwolame --enable-libuavs3d --disable-libdrm --disable-vaapi --enable-libvidstab --enable-vulkan --enable-libshaderc --enable-libplacebo --enable-libx264 --enable-libx265 --enable-libxavs2 --enable-libxvid --enable-libzimg --enable-libzvbi --extra-cflags=-DLIBTWOLAME_STATIC --extra-cxxflags= --extra-ldflags=-pthread --extra-ldexeflags= --extra-libs=-lgomp --extra-version=20220927
2022-10-19 09:28:55,786 [Thread-12] INFO  [com.suke.axsc.web.handler.CustomOutHandlerMethod] CustomOutHandlerMethod.java:59 - live1æ—¥å¿—ï¼š  libavutil      57. 37.100 / 57. 37.100
2022-10-19 09:29:01,188 [Thread-12] INFO  [com.suke.axsc.web.handler.CustomOutHandlerMethod] CustomOutHandlerMethod.java:59 - live1æ—¥å¿—ï¼šCould not find codec parameters for stream 1 (Audio: none, 16000 Hz, mono): unknown codec
2022-10-19 09:29:01,189 [Thread-12] INFO  [com.suke.axsc.web.handler.CustomOutHandlerMethod] CustomOutHandlerMethod.java:59 - live1æ—¥å¿—ï¼šConsider increasing the value for the 'analyzeduration' (0) and 'probesize' (5000000) options
2022-10-19 09:29:01,189 [Thread-12] INFO  [com.suke.axsc.web.handler.CustomOutHandlerMethod] CustomOutHandlerMethod.java:59 - live1æ—¥å¿—ï¼š90k tbn
2022-10-19 09:29:06,217 [Thread-4] ERROR [c.s.axsc.common.push.handler.ProcessWatchHandler] ProcessWatchHandler.java:49 - taskId:live1 è¿›ç¨‹å¯èƒ½æŒ‚äº†ï¼Œæ²¡æœ‰æ—¥å¿—è¾“å‡º
2022-10-19 09:29:06,217 [Thread-12] ERROR [com.suke.axsc.web.handler.CustomOutHandlerMethod] CustomOutHandlerMethod.java:31 - live1ä»»åŠ¡å¯èƒ½å‘ç”Ÿæ•…éšœï¼š Connection to tcp://127.0.0.1:1935?tcp_nodelay=0 failed: Error number -138 occurred
2022-10-19 09:29:06,219 [Thread-12] ERROR [com.suke.axsc.web.handler.CustomOutHandlerMethod] CustomOutHandlerMethod.java:32 - å¤±è´¥ï¼Œè®¾ç½®ä¸­æ–­çŠ¶æ€
2022-10-19 09:29:06,219 [Thread-3] ERROR [com.suke.axsc.common.push.handler.KeepAliveHandler] KeepAliveHandler.java:73 - å‡†å¤‡é‡å¯ä»»åŠ¡ï¼š[live1]
2022-10-19 09:29:06,219 [Thread-12] ERROR [com.suke.axsc.common.push.handler.OutHandler] OutHandler.java:105 - æ£€æµ‹åˆ°ä¸­æ–­ï¼Œæäº¤é‡å¯ä»»åŠ¡ç»™ä¿æ´»å¤„ç†å™¨
2022-10-19 09:29:06,225 [Thread-13] INFO  [com.suke.axsc.common.push.handler.OutHandler] OutHandler.java:100 - live1å¼€å§‹æ¨æµï¼
2022-10-19 09:29:06,247 [Thread-13] INFO  [com.suke.axsc.web.handler.CustomOutHandlerMethod] CustomOutHandlerMethod.java:59 - live1æ—¥å¿—ï¼šffmpeg version N-108404-gc03f9654c9-20220927 Copyright (c) 2000-2022 the FFmpeg developers
2022-10-19 09:29:06,248 [Thread-13] INFO  [com.suke.axsc.web.handler.CustomOutHandlerMethod] CustomOutHandlerMethod.java:59 - live1æ—¥å¿—ï¼š  built with gcc 12.1.0 (crosstool-NG 1.25.0.55_3defb7b)
2022-10-19 09:29:06,248 [Thread-13] INFO  [com.suke.axsc.web.handler.CustomOutHandlerMethod] CustomOutHandlerMethod.java:59 - live1æ—¥å¿—ï¼š  configuration: --prefix=/ffbuild/prefix --pkg-config-flags=--static --pkg-config=pkg-config --cross-prefix=x86_64-w64-mingw32- --arch=x86_64 --target-os=mingw32 --enable-gpl --enable-version3 --disable-debug --disable-w32threads --enable-pthreads --enable-iconv --enable-libxml2 --enable-zlib --enable-libfreetype --enable-libfribidi --enable-gmp --enable-lzma --enable-fontconfig --enable-libvorbis --enable-opencl --disable-libpulse --enable-libvmaf --disable-libxcb --disable-xlib --enable-amf --enable-libaom --enable-libaribb24 --enable-avisynth --enable-libdav1d --enable-libdavs2 --disable-libfdk-aac --enable-ffnvcodec --enable-cuda-llvm --enable-frei0r --enable-libgme --enable-libkvazaar --enable-libass --enable-libbluray --enable-libjxl --enable-libmp3lame --enable-libopus --enable-librist --enable-libssh --enable-libtheora --enable-libvpx --enable-libwebp --enable-lv2 --enable-libmfx --enable-libopencore-amrnb --enable-libopencore-amrwb --enable-libopenh264 --enable-libopenjpeg --enable-libopenmpt --enable-librav1e --enable-librubberband --enable-schannel --enable-sdl2 --enable-libsoxr --enable-libsrt --enable-libsvtav1 --enable-libtwolame --enable-libuavs3d --disable-libdrm --disable-vaapi --enable-libvidstab --enable-vulkan --enable-libshaderc --enable-libplacebo --enable-libx264 --enable-libx265 --enable-libxavs2 --enable-libxvid --enable-libzimg --enable-libzvbi --extra-cflags=-DLIBTWOLAME_STATIC --extra-cxxflags= --extra-ldflags=-pthread --extra-ldexeflags= --extra-libs=-lgomp --extra-version=20220927
2022-10-19 09:29:06,249 [Thread-13] INFO  [com.suke.axsc.web.handler.CustomOutHandlerMethod] CustomOutHandlerMethod.java:59 - live1æ—¥å¿—ï¼š  libavutil      57. 37.100 / 57. 37.100
2022-10-19 09:29:06,249 [Thread-13] INFO  [com.suke.axsc.web.handler.CustomOutHandlerMethod] CustomOutHandlerMethod.java:59 - live1æ—¥å¿—ï¼š  libavcodec     59. 48.100 / 59. 48.100
2022-10-19 09:29:06,249 [Thread-13] INFO  [com.suke.axsc.web.handler.CustomOutHandlerMethod] CustomOutHandlerMethod.java:59 - live1æ—¥å¿—ï¼š  libavformat    59. 33.100 / 59. 33.100
2022-10-19 09:29:06,250 [Thread-13] INFO  [com.suke.axsc.web.handler.CustomOutHandlerMethod] CustomOutHandlerMethod.java:59 - live1æ—¥å¿—ï¼š  libavdevice    59.  8.101 / 59.  8.101
2022-10-19 09:29:06,250 [Thread-13] INFO  [com.suke.axsc.web.handler.CustomOutHandlerMethod] CustomOutHandlerMethod.java:59 - live1æ—¥å¿—ï¼š  libavfilter     8. 49.100 /  8. 49.100
2022-10-19 09:29:06,250 [Thread-13] INFO  [com.suke.axsc.web.handler.CustomOutHandlerMethod] CustomOutHandlerMethod.java:59 - live1æ—¥å¿—ï¼š  libswscale      6.  8.112 /  6.  8.112
2022-10-19 09:29:06,250 [Thread-13] INFO  [com.suke.axsc.web.handler.CustomOutHandlerMethod] CustomOutHandlerMethod.java:59 - live1æ—¥å¿—ï¼š  libswresample   4.  9.100 /  4.  9.100
2022-10-19 09:29:06,250 [Thread-13] INFO  [com.suke.axsc.web.handler.CustomOutHandlerMethod] CustomOutHandlerMethod.java:59 - live1æ—¥å¿—ï¼š  libpostproc    56.  7.100 / 56.  7.100
2022-10-19 09:29:11,665 [Thread-13] INFO  [com.suke.axsc.web.handler.CustomOutHandlerMethod] CustomOutHandlerMethod.java:59 - live1æ—¥å¿—ï¼š[rtsp @ 000001c303052c00] Could not find codec parameters for stream 1 (Audio: none, 16000 Hz, mono): unknown codec
2022-10-19 09:29:11,666 [Thread-13] INFO  [com.suke.axsc.web.handler.CustomOutHandlerMethod] CustomOutHandlerMethod.java:59 - live1æ—¥å¿—ï¼šConsider increasing the value for the 'analyzeduration' (0) and 'probesize' (5000000) options
2022-10-19 09:29:11,667 [Thread-13] INFO  [com.suke.axsc.web.handler.CustomOutHandlerMethod] CustomOutHandlerMethod.java:59 - live1æ—¥å¿—ï¼šInput #0, rtsp, from 'rtsp://admin:admin172839@192.168.0.209:1024/Streaming/Channels/101':
2022-10-19 09:29:11,667 [Thread-13] INFO  [com.suke.axsc.web.handler.CustomOutHandlerMethod] CustomOutHandlerMethod.java:59 - live1æ—¥å¿—ï¼š  Metadata:
2022-10-19 09:29:11,667 [Thread-13] INFO  [com.suke.axsc.web.handler.CustomOutHandlerMethod] CustomOutHandlerMethod.java:59 - live1æ—¥å¿—ï¼š    title           : HIK Media Server V3.3.11
2022-10-19 09:29:11,667 [Thread-13] INFO  [com.suke.axsc.web.handler.CustomOutHandlerMethod] CustomOutHandlerMethod.java:59 - live1æ—¥å¿—ï¼š    comment         : HIK Media Server Session Description : standard
2022-10-19 09:29:11,667 [Thread-13] INFO  [com.suke.axsc.web.handler.CustomOutHandlerMethod] CustomOutHandlerMethod.java:59 - live1æ—¥å¿—ï¼š  Duration: N/A, start: 0.040000, bitrate: N/A
2022-10-19 09:29:11,667 [Thread-13] INFO  [com.suke.axsc.web.handler.CustomOutHandlerMethod] CustomOutHandlerMethod.java:59 - live1æ—¥å¿—ï¼š  Stream #0:0: Video: h264 (Main), yuvj420p(pc, bt709, progressive), 1920x1080, 25 fps, 25 tbr, 90k tbn
2022-10-19 09:29:11,668 [Thread-13] INFO  [com.suke.axsc.web.handler.CustomOutHandlerMethod] CustomOutHandlerMethod.java:59 - live1æ—¥å¿—ï¼š  Stream #0:1: Audio: none, 16000 Hz, mono
2022-10-19 09:29:16,683 [Thread-13] ERROR [com.suke.axsc.web.handler.CustomOutHandlerMethod] CustomOutHandlerMethod.java:31 - live1ä»»åŠ¡å¯èƒ½å‘ç”Ÿæ•…éšœï¼š[tcp @ 000001c3035d0f00] Connection to tcp://127.0.0.1:1935?tcp_nodelay=0 failed: Error number -138 occurred
2022-10-19 09:29:16,683 [Thread-13] ERROR [com.suke.axsc.web.handler.CustomOutHandlerMethod] CustomOutHandlerMethod.java:32 - å¤±è´¥ï¼Œè®¾ç½®ä¸­æ–­çŠ¶æ€
2022-10-19 09:29:16,683 [Thread-13] ERROR [com.suke.axsc.common.push.handler.OutHandler] OutHandler.java:105 - æ£€æµ‹åˆ°ä¸­æ–­ï¼Œæäº¤é‡å¯ä»»åŠ¡ç»™ä¿æ´»å¤„ç†å™¨
2022-10-19 09:29:16,683 [Thread-3] ERROR [com.suke.axsc.common.push.handler.KeepAliveHandler] KeepAliveHandler.java:73 - å‡†å¤‡é‡å¯ä»»åŠ¡ï¼š[live1]
2022-10-19 09:29:16,684 [Thread-13] INFO  [com.suke.axsc.web.handler.CustomOutHandlerMethod] CustomOutHandlerMethod.java:59 - live1æ—¥å¿—ï¼š[rtmp @ 000001c30316a800] Cannot open connection tcp://127.0.0.1:1935?tcp_nodelay=0
2022-10-19 09:29:16,690 [Thread-14] INFO  [com.suke.axsc.common.push.handler.OutHandler] OutHandler.java:100 - live1å¼€å§‹æ¨æµï¼
2022-10-19 09:29:16,715 [Thread-14] INFO  [com.suke.axsc.web.handler.CustomOutHandlerMethod] CustomOutHandlerMethod.java:59 - live1æ—¥å¿—ï¼šffmpeg version N-108404-gc03f9654c9-20220927 Copyright (c) 2000-2022 the FFmpeg developers
2022-10-19 09:29:16,715 [Thread-14] INFO  [com.suke.axsc.web.handler.CustomOutHandlerMethod] CustomOutHandlerMethod.java:59 - live1æ—¥å¿—ï¼š  built with gcc 12.1.0 (crosstool-NG 1.25.0.55_3defb7b)
2022-10-19 09:29:16,716 [Thread-14] INFO  [com.suke.axsc.web.handler.CustomOutHandlerMethod] CustomOutHandlerMethod.java:59 - live1æ—¥å¿—ï¼š  configuration: --prefix=/ffbuild/prefix --pkg-config-flags=--static --pkg-config=pkg-config --cross-prefix=x86_64-w64-mingw32- --arch=x86_64 --target-os=mingw32 --enable-gpl --enable-version3 --disable-debug --disable-w32threads --enable-pthreads --enable-iconv --enable-libxml2 --enable-zlib --enable-libfreetype --enable-libfribidi --enable-gmp --enable-lzma --enable-fontconfig --enable-libvorbis --enable-opencl --disable-libpulse --enable-libvmaf --disable-libxcb --disable-xlib --enable-amf --enable-libaom --enable-libaribb24 --enable-avisynth --enable-libdav1d --enable-libdavs2 --disable-libfdk-aac --enable-ffnvcodec --enable-cuda-llvm --enable-frei0r --enable-libgme --enable-libkvazaar --enable-libass --enable-libbluray --enable-libjxl --enable-libmp3lame --enable-libopus --enable-librist --enable-libssh --enable-libtheora --enable-libvpx --enable-libwebp --enable-lv2 --enable-libmfx --enable-libopencore-amrnb --enable-libopencore-amrwb --enable-libopenh264 --enable-libopenjpeg --enable-libopenmpt --enable-librav1e --enable-librubberband --enable-schannel --enable-sdl2 --enable-libsoxr --enable-libsrt --enable-libsvtav1 --enable-libtwolame --enable-libuavs3d --disable-libdrm --disable-vaapi --enable-libvidstab --enable-vulkan --enable-libshaderc --enable-libplacebo --enable-libx264 --enable-libx265 --enable-libxavs2 --enable-libxvid --enable-libzimg --enable-libzvbi --extra-cflags=-DLIBTWOLAME_STATIC --extra-cxxflags= --extra-ldflags=-pthread --extra-ldexeflags= --extra-libs=-lgomp --extra-version=20220927
2022-10-19 09:29:16,716 [Thread-14] INFO  [com.suke.axsc.web.handler.CustomOutHandlerMethod] CustomOutHandlerMethod.java:59 - live1æ—¥å¿—ï¼š  libavutil      57. 37.100 / 57. 37.100
2022-10-19 09:29:16,717 [Thread-14] INFO  [com.suke.axsc.web.handler.CustomOutHandlerMethod] CustomOutHandlerMethod.java:59 - live1æ—¥å¿—ï¼š  libavcodec     59. 48.100 / 59. 48.100
2022-10-19 09:29:16,718 [Thread-14] INFO  [com.suke.axsc.web.handler.CustomOutHandlerMethod] CustomOutHandlerMethod.java:59 - live1æ—¥å¿—ï¼š  libavformat    59. 33.100 / 59. 33.100
2022-10-19 09:29:16,718 [Thread-14] INFO  [com.suke.axsc.web.handler.CustomOutHandlerMethod] CustomOutHandlerMethod.java:59 - live1æ—¥å¿—ï¼š  libavdevice    59.  8.101 / 59.  8.101
2022-10-19 09:29:16,719 [Thread-14] INFO  [com.suke.axsc.web.handler.CustomOutHandlerMethod] CustomOutHandlerMethod.java:59 - live1æ—¥å¿—ï¼š  libavfilter     8. 49.100 /  8. 49.100
2022-10-19 09:29:16,719 [Thread-14] INFO  [com.suke.axsc.web.handler.CustomOutHandlerMethod] CustomOutHandlerMethod.java:59 - live1æ—¥å¿—ï¼š  libswscale      6.  8.112 /  6.  8.112
2022-10-19 09:29:16,719 [Thread-14] INFO  [com.suke.axsc.web.handler.CustomOutHandlerMethod] CustomOutHandlerMethod.java:59 - live1æ—¥å¿—ï¼š  libswresample   4.  9.100 /  4.  9.100
2022-10-19 09:29:16,720 [Thread-14] INFO  [com.suke.axsc.web.handler.CustomOutHandlerMethod] CustomOutHandlerMethod.java:59 - live1æ—¥å¿—ï¼š  libpostproc    56.  7.100 / 56.  7.100
2022-10-19 09:29:22,163 [Thread-14] INFO  [com.suke.axsc.web.handler.CustomOutHandlerMethod] CustomOutHandlerMethod.java:59 - live1æ—¥å¿—ï¼š[rtsp @ 000001ab85de2c00] Could not find codec parameters for stream 1 (Audio: none, 16000 Hz, mono): unknown codec
2022-10-19 09:29:22,164 [Thread-14] INFO  [com.suke.axsc.web.handler.CustomOutHandlerMethod] CustomOutHandlerMethod.java:59 - live1æ—¥å¿—ï¼šConsider increasing the value for the 'analyzeduration' (0) and 'probesize' (5000000) options
2022-10-19 09:29:22,164 [Thread-14] INFO  [com.suke.axsc.web.handler.CustomOutHandlerMethod] CustomOutHandlerMethod.java:59 - live1æ—¥å¿—ï¼šInput #0, rtsp, from 'rtsp://admin:admin172839@192.168.0.209:1024/Streaming/Channels/101':
2022-10-19 09:29:22,164 [Thread-14] INFO  [com.suke.axsc.web.handler.CustomOutHandlerMethod] CustomOutHandlerMethod.java:59 - live1æ—¥å¿—ï¼š  Metadata:
2022-10-19 09:29:22,165 [Thread-14] INFO  [com.suke.axsc.web.handler.CustomOutHandlerMethod] CustomOutHandlerMethod.java:59 - live1æ—¥å¿—ï¼š    title           : HIK Media Server V3.3.11
2022-10-19 09:29:22,165 [Thread-14] INFO  [com.suke.axsc.web.handler.CustomOutHandlerMethod] CustomOutHandlerMethod.java:59 - live1æ—¥å¿—ï¼š    comment         : HIK Media Server Session Description : standard
2022-10-19 09:29:22,165 [Thread-14] INFO  [com.suke.axsc.web.handler.CustomOutHandlerMethod] CustomOutHandlerMethod.java:59 - live1æ—¥å¿—ï¼š  Duration: N/A, start: 0.040000, bitrate: N/A
2022-10-19 09:29:22,165 [Thread-14] INFO  [com.suke.axsc.web.handler.CustomOutHandlerMethod] CustomOutHandlerMethod.java:59 - live1æ—¥å¿—ï¼š  Stream #0:0: Video: h264 (Main), yuvj420p(pc, bt709, progressive), 1920x1080, 25 fps, 25 tbr, 90k tbn
2022-10-19 09:29:22,166 [Thread-14] INFO  [com.suke.axsc.web.handler.CustomOutHandlerMethod] CustomOutHandlerMethod.java:59 - live1æ—¥å¿—ï¼š  Stream #0:1: Audio: none, 16000 Hz, mono
2022-10-19 09:29:27,181 [Thread-14] ERROR [com.suke.axsc.web.handler.CustomOutHandlerMethod] CustomOutHandlerMethod.java:31 - live1ä»»åŠ¡å¯èƒ½å‘ç”Ÿæ•…éšœï¼š[tcp @ 000001ab85ecee00] Connection to tcp://127.0.0.1:1935?tcp_nodelay=0 failed: Error number -138 occurred
2022-10-19 09:29:27,181 [Thread-14] ERROR [com.suke.axsc.web.handler.CustomOutHandlerMethod] CustomOutHandlerMethod.java:32 - å¤±è´¥ï¼Œè®¾ç½®ä¸­æ–­çŠ¶æ€
2022-10-19 09:29:27,181 [Thread-14] ERROR [com.suke.axsc.common.push.handler.OutHandler] OutHandler.java:105 - æ£€æµ‹åˆ°ä¸­æ–­ï¼Œæäº¤é‡å¯ä»»åŠ¡ç»™ä¿æ´»å¤„ç†å™¨
2022-10-19 09:29:27,181 [Thread-3] ERROR [com.suke.axsc.common.push.handler.KeepAliveHandler] KeepAliveHandler.java:73 - å‡†å¤‡é‡å¯ä»»åŠ¡ï¼š[live1]
2022-10-19 09:29:27,187 [Thread-15] INFO  [com.suke.axsc.common.push.handler.OutHandler] OutHandler.java:100 - live1å¼€å§‹æ¨æµï¼
2022-10-19 09:29:27,210 [Thread-15] INFO  [com.suke.axsc.web.handler.CustomOutHandlerMethod] CustomOutHandlerMethod.java:59 - live1æ—¥å¿—ï¼šffmpeg version N-108404-gc03f9654c9-20220927 Copyright (c) 2000-2022 the FFmpeg developers
2022-10-19 09:29:27,210 [Thread-15] INFO  [com.suke.axsc.web.handler.CustomOutHandlerMethod] CustomOutHandlerMethod.java:59 - live1æ—¥å¿—ï¼š  built with gcc 12.1.0 (crosstool-NG 1.25.0.55_3defb7b)
2022-10-19 09:29:27,211 [Thread-15] INFO  [com.suke.axsc.web.handler.CustomOutHandlerMethod] CustomOutHandlerMethod.java:59 - live1æ—¥å¿—ï¼š  configuration: --prefix=/ffbuild/prefix --pkg-config-flags=--static --pkg-config=pkg-config --cross-prefix=x86_64-w64-mingw32- --arch=x86_64 --target-os=mingw32 --enable-gpl --enable-version3 --disable-debug --disable-w32threads --enable-pthreads --enable-iconv --enable-libxml2 --enable-zlib --enable-libfreetype --enable-libfribidi --enable-gmp --enable-lzma --enable-fontconfig --enable-libvorbis --enable-opencl --disable-libpulse --enable-libvmaf --disable-libxcb --disable-xlib --enable-amf --enable-libaom --enable-libaribb24 --enable-avisynth --enable-libdav1d --enable-libdavs2 --disable-libfdk-aac --enable-ffnvcodec --enable-cuda-llvm --enable-frei0r --enable-libgme --enable-libkvazaar --enable-libass --enable-libbluray --enable-libjxl --enable-libmp3lame --enable-libopus --enable-librist --enable-libssh --enable-libtheora --enable-libvpx --enable-libwebp --enable-lv2 --enable-libmfx --enable-libopencore-amrnb --enable-libopencore-amrwb --enable-libopenh264 --enable-libopenjpeg --enable-libopenmpt --enable-librav1e --enable-librubberband --enable-schannel --enable-sdl2 --enable-libsoxr --enable-libsrt --enable-libsvtav1 --enable-libtwolame --enable-libuavs3d --disable-libdrm --disable-vaapi --enable-libvidstab --enable-vulkan --enable-libshaderc --enable-libplacebo --enable-libx264 --enable-libx265 --enable-libxavs2 --enable-libxvid --enable-libzimg --enable-libzvbi --extra-cflags=-DLIBTWOLAME_STATIC --extra-cxxflags= --extra-ldflags=-pthread --extra-ldexeflags= --extra-libs=-lgomp --extra-version=20220927
2022-10-19 09:29:27,211 [Thread-15] INFO  [com.suke.axsc.web.handler.CustomOutHandlerMethod] CustomOutHandlerMethod.java:59 - live1æ—¥å¿—ï¼š  libavutil      57. 37.100 / 57. 37.100
2022-10-19 09:29:27,212 [Thread-15] INFO  [com.suke.axsc.web.handler.CustomOutHandlerMethod] CustomOutHandlerMethod.java:59 - live1æ—¥å¿—ï¼š  libavcodec     59. 48.100 / 59. 48.100
2022-10-19 09:29:27,213 [Thread-15] INFO  [com.suke.axsc.web.handler.CustomOutHandlerMethod] CustomOutHandlerMethod.java:59 - live1æ—¥å¿—ï¼š  libavformat    59. 33.100 / 59. 33.100
2022-10-19 09:29:27,213 [Thread-15] INFO  [com.suke.axsc.web.handler.CustomOutHandlerMethod] CustomOutHandlerMethod.java:59 - live1æ—¥å¿—ï¼š  libavdevice    59.  8.101 / 59.  8.101
2022-10-19 09:29:27,213 [Thread-15] INFO  [com.suke.axsc.web.handler.CustomOutHandlerMethod] CustomOutHandlerMethod.java:59 - live1æ—¥å¿—ï¼š  libavfilter     8. 49.100 /  8. 49.100
2022-10-19 09:29:27,214 [Thread-15] INFO  [com.suke.axsc.web.handler.CustomOutHandlerMethod] CustomOutHandlerMethod.java:59 - live1æ—¥å¿—ï¼š  libswscale      6.  8.112 /  6.  8.112
2022-10-19 09:29:27,214 [Thread-15] INFO  [com.suke.axsc.web.handler.CustomOutHandlerMethod] CustomOutHandlerMethod.java:59 - live1æ—¥å¿—ï¼š  libswresample   4.  9.100 /  4.  9.100
2022-10-19 09:29:27,214 [Thread-15] INFO  [com.suke.axsc.web.handler.CustomOutHandlerMethod] CustomOutHandlerMethod.java:59 - live1æ—¥å¿—ï¼š  libpostproc    56.  7.100 / 56.  7.100
2022-10-19 09:29:32,649 [Thread-15] INFO  [com.suke.axsc.web.handler.CustomOutHandlerMethod] CustomOutHandlerMethod.java:59 - live1æ—¥å¿—ï¼š[rtsp @ 000001f5f4932c00] Could not find codec parameters for stream 1 (Audio: none, 16000 Hz, mono): unknown codec
2022-10-19 09:29:32,649 [Thread-15] INFO  [com.suke.axsc.web.handler.CustomOutHandlerMethod] CustomOutHandlerMethod.java:59 - live1æ—¥å¿—ï¼šConsider increasing the value for the 'analyzeduration' (0) and 'probesize' (5000000) options
2022-10-19 09:29:32,650 [Thread-15] INFO  [com.suke.axsc.web.handler.CustomOutHandlerMethod] CustomOutHandlerMethod.java:59 - live1æ—¥å¿—ï¼šInput #0, rtsp, from 'rtsp://admin:admin172839@192.168.0.209:1024/Streaming/Channels/101':
2022-10-19 09:29:32,650 [Thread-15] INFO  [com.suke.axsc.web.handler.CustomOutHandlerMethod] CustomOutHandlerMethod.java:59 - live1æ—¥å¿—ï¼š  Metadata:
2022-10-19 09:29:32,650 [Thread-15] INFO  [com.suke.axsc.web.handler.CustomOutHandlerMethod] CustomOutHandlerMethod.java:59 - live1æ—¥å¿—ï¼š    title           : HIK Media Server V3.3.11
2022-10-19 09:29:32,650 [Thread-15] INFO  [com.suke.axsc.web.handler.CustomOutHandlerMethod] CustomOutHandlerMethod.java:59 - live1æ—¥å¿—ï¼š    comment         : HIK Media Server Session Description : standard
2022-10-19 09:29:32,650 [Thread-15] INFO  [com.suke.axsc.web.handler.CustomOutHandlerMethod] CustomOutHandlerMethod.java:59 - live1æ—¥å¿—ï¼š  Duration: N/A, start: 0.040000, bitrate: N/A
2022-10-19 09:29:32,650 [Thread-15] INFO  [com.suke.axsc.web.handler.CustomOutHandlerMethod] CustomOutHandlerMethod.java:59 - live1æ—¥å¿—ï¼š  Stream #0:0: Video: h264 (Main), yuvj420p(pc, bt709, progressive), 1920x1080, 25 fps, 25 tbr, 90k tbn
2022-10-19 09:29:32,651 [Thread-15] INFO  [com.suke.axsc.web.handler.CustomOutHandlerMethod] CustomOutHandlerMethod.java:59 - live1æ—¥å¿—ï¼š  Stream #0:1: Audio: none, 16000 Hz, mono
2022-10-19 09:29:37,665 [Thread-15] ERROR [com.suke.axsc.web.handler.CustomOutHandlerMethod] CustomOutHandlerMethod.java:31 - live1ä»»åŠ¡å¯èƒ½å‘ç”Ÿæ•…éšœï¼š[tcp @ 000001f5f4e90f00] Connection to tcp://127.0.0.1:1935?tcp_nodelay=0 failed: Error number -138 occurred
2022-10-19 09:29:37,665 [Thread-15] ERROR [com.suke.axsc.web.handler.CustomOutHandlerMethod] CustomOutHandlerMethod.java:32 - å¤±è´¥ï¼Œè®¾ç½®ä¸­æ–­çŠ¶æ€
2022-10-19 09:29:37,665 [Thread-15] ERROR [com.suke.axsc.common.push.handler.OutHandler] OutHandler.java:105 - æ£€æµ‹åˆ°ä¸­æ–­ï¼Œæäº¤é‡å¯ä»»åŠ¡ç»™ä¿æ´»å¤„ç†å™¨
2022-10-19 09:29:37,666 [Thread-3] ERROR [com.suke.axsc.common.push.handler.KeepAliveHandler] KeepAliveHandler.java:73 - å‡†å¤‡é‡å¯ä»»åŠ¡ï¼š[live1]
2022-10-19 09:29:37,666 [Thread-15] INFO  [com.suke.axsc.web.handler.CustomOutHandlerMethod] CustomOutHandlerMethod.java:59 - live1æ—¥å¿—ï¼š[rtmp @ 000001f5f4e90e40] Cannot open connection tcp://127.0.0.1:1935?tcp_nodelay=0
2022-10-19 09:29:37,674 [Thread-16] INFO  [com.suke.axsc.common.push.handler.OutHandler] OutHandler.java:100 - live1å¼€å§‹æ¨æµï¼
2022-10-19 09:29:37,698 [Thread-16] INFO  [com.suke.axsc.web.handler.CustomOutHandlerMethod] CustomOutHandlerMethod.java:59 - live1æ—¥å¿—ï¼šffmpeg version N-108404-gc03f9654c9-20220927 Copyright (c) 2000-2022 the FFmpeg developers
2022-10-19 09:29:37,698 [Thread-16] INFO  [com.suke.axsc.web.handler.CustomOutHandlerMethod] CustomOutHandlerMethod.java:59 - live1æ—¥å¿—ï¼š  built with gcc 12.1.0 (crosstool-NG 1.25.0.55_3defb7b)
2022-10-19 09:29:37,699 [Thread-16] INFO  [com.suke.axsc.web.handler.CustomOutHandlerMethod] CustomOutHandlerMethod.java:59 - live1æ—¥å¿—ï¼š  configuration: --prefix=/ffbuild/prefix --pkg-config-flags=--static --pkg-config=pkg-config --cross-prefix=x86_64-w64-mingw32- --arch=x86_64 --target-os=mingw32 --enable-gpl --enable-version3 --disable-debug --disable-w32threads --enable-pthreads --enable-iconv --enable-libxml2 --enable-zlib --enable-libfreetype --enable-libfribidi --enable-gmp --enable-lzma --enable-fontconfig --enable-libvorbis --enable-opencl --disable-libpulse --enable-libvmaf --disable-libxcb --disable-xlib --enable-amf --enable-libaom --enable-libaribb24 --enable-avisynth --enable-libdav1d --enable-libdavs2 --disable-libfdk-aac --enable-ffnvcodec --enable-cuda-llvm --enable-frei0r --enable-libgme --enable-libkvazaar --enable-libass --enable-libbluray --enable-libjxl --enable-libmp3lame --enable-libopus --enable-librist --enable-libssh --enable-libtheora --enable-libvpx --enable-libwebp --enable-lv2 --enable-libmfx --enable-libopencore-amrnb --enable-libopencore-amrwb --enable-libopenh264 --enable-libopenjpeg --enable-libopenmpt --enable-librav1e --enable-librubberband --enable-schannel --enable-sdl2 --enable-libsoxr --enable-libsrt --enable-libsvtav1 --enable-libtwolame --enable-libuavs3d --disable-libdrm --disable-vaapi --enable-libvidstab --enable-vulkan --enable-libshaderc --enable-libplacebo --enable-libx264 --enable-libx265 --enable-libxavs2 --enable-libxvid --enable-libzimg --enable-libzvbi --extra-cflags=-DLIBTWOLAME_STATIC --extra-cxxflags= --extra-ldflags=-pthread --extra-ldexeflags= --extra-libs=-lgomp --extra-version=20220927
2022-10-19 09:29:37,699 [Thread-16] INFO  [com.suke.axsc.web.handler.CustomOutHandlerMethod] CustomOutHandlerMethod.java:59 - live1æ—¥å¿—ï¼š  libavutil      57. 37.100 / 57. 37.100
2022-10-19 09:29:37,699 [Thread-16] INFO  [com.suke.axsc.web.handler.CustomOutHandlerMethod] CustomOutHandlerMethod.java:59 - live1æ—¥å¿—ï¼š  libavcodec     59. 48.100 / 59. 48.100
2022-10-19 09:29:37,699 [Thread-16] INFO  [com.suke.axsc.web.handler.CustomOutHandlerMethod] CustomOutHandlerMethod.java:59 - live1æ—¥å¿—ï¼š  libavformat    59. 33.100 / 59. 33.100
2022-10-19 09:29:37,700 [Thread-16] INFO  [com.suke.axsc.web.handler.CustomOutHandlerMethod] CustomOutHandlerMethod.java:59 - live1æ—¥å¿—ï¼š  libavdevice    59.  8.101 / 59.  8.101
2022-10-19 09:29:37,700 [Thread-16] INFO  [com.suke.axsc.web.handler.CustomOutHandlerMethod] CustomOutHandlerMethod.java:59 - live1æ—¥å¿—ï¼š  libavfilter     8. 49.100 /  8. 49.100
2022-10-19 09:29:37,700 [Thread-16] INFO  [com.suke.axsc.web.handler.CustomOutHandlerMethod] CustomOutHandlerMethod.java:59 - live1æ—¥å¿—ï¼š  libswscale      6.  8.112 /  6.  8.112
2022-10-19 09:29:37,700 [Thread-16] INFO  [com.suke.axsc.web.handler.CustomOutHandlerMethod] CustomOutHandlerMethod.java:59 - live1æ—¥å¿—ï¼š  libswresample   4.  9.100 /  4.  9.100
2022-10-19 09:29:37,700 [Thread-16] INFO  [com.suke.axsc.web.handler.CustomOutHandlerMethod] CustomOutHandlerMethod.java:59 - live1æ—¥å¿—ï¼š  libpostproc    56.  7.100 / 56.  7.100
2022-10-19 09:29:43,120 [Thread-16] INFO  [com.suke.axsc.web.handler.CustomOutHandlerMethod] CustomOutHandlerMethod.java:59 - live1æ—¥å¿—ï¼š[rtsp @ 000002c07fa22c00] Could not find codec parameters for stream 1 (Audio: none, 16000 Hz, mono): unknown codec
2022-10-19 09:29:43,121 [Thread-16] INFO  [com.suke.axsc.web.handler.CustomOutHandlerMethod] CustomOutHandlerMethod.java:59 - live1æ—¥å¿—ï¼šConsider increasing the value for the 'analyzeduration' (0) and 'probesize' (5000000) options
2022-10-19 09:29:43,121 [Thread-16] INFO  [com.suke.axsc.web.handler.CustomOutHandlerMethod] CustomOutHandlerMethod.java:59 - live1æ—¥å¿—ï¼šInput #0, rtsp, from 'rtsp://admin:admin172839@192.168.0.209:1024/Streaming/Channels/101':
2022-10-19 09:29:43,121 [Thread-16] INFO  [com.suke.axsc.web.handler.CustomOutHandlerMethod] CustomOutHandlerMethod.java:59 - live1æ—¥å¿—ï¼š  Metadata:
2022-10-19 09:29:43,121 [Thread-16] INFO  [com.suke.axsc.web.handler.CustomOutHandlerMethod] CustomOutHandlerMethod.java:59 - live1æ—¥å¿—ï¼š    title           : HIK Media Server V3.3.11
2022-10-19 09:29:43,122 [Thread-16] INFO  [com.suke.axsc.web.handler.CustomOutHandlerMethod] CustomOutHandlerMethod.java:59 - live1æ—¥å¿—ï¼š    comment         : HIK Media Server Session Description : standard
2022-10-19 09:29:43,122 [Thread-16] INFO  [com.suke.axsc.web.handler.CustomOutHandlerMethod] CustomOutHandlerMethod.java:59 - live1æ—¥å¿—ï¼š  Duration: N/A, start: 0.040000, bitrate: N/A
2022-10-19 09:29:43,122 [Thread-16] INFO  [com.suke.axsc.web.handler.CustomOutHandlerMethod] CustomOutHandlerMethod.java:59 - live1æ—¥å¿—ï¼š  Stream #0:0: Video: h264 (Main), yuvj420p(pc, bt709, progressive), 1920x1080, 25 fps, 25 tbr, 90k tbn
2022-10-19 09:29:43,122 [Thread-16] INFO  [com.suke.axsc.web.handler.CustomOutHandlerMethod] CustomOutHandlerMethod.java:59 - live1æ—¥å¿—ï¼š  Stream #0:1: Audio: none, 16000 Hz, mono
2022-10-19 09:29:48,135 [Thread-16] ERROR [com.suke.axsc.web.handler.CustomOutHandlerMethod] CustomOutHandlerMethod.java:31 - live1ä»»åŠ¡å¯èƒ½å‘ç”Ÿæ•…éšœï¼š[tcp @ 000002c0001fed00] Connection to tcp://127.0.0.1:1935?tcp_nodelay=0 failed: Error number -138 occurred
2022-10-19 09:29:48,135 [Thread-16] ERROR [com.suke.axsc.web.handler.CustomOutHandlerMethod] CustomOutHandlerMethod.java:32 - å¤±è´¥ï¼Œè®¾ç½®ä¸­æ–­çŠ¶æ€
2022-10-19 09:29:48,135 [Thread-16] ERROR [com.suke.axsc.common.push.handler.OutHandler] OutHandler.java:105 - æ£€æµ‹åˆ°ä¸­æ–­ï¼Œæäº¤é‡å¯ä»»åŠ¡ç»™ä¿æ´»å¤„ç†å™¨
2022-10-19 09:29:48,135 [Thread-3] ERROR [com.suke.axsc.common.push.handler.KeepAliveHandler] KeepAliveHandler.java:73 - å‡†å¤‡é‡å¯ä»»åŠ¡ï¼š[live1]
2022-10-19 09:29:48,135 [Thread-16] INFO  [com.suke.axsc.web.handler.CustomOutHandlerMethod] CustomOutHandlerMethod.java:59 - live1æ—¥å¿—ï¼š[rtmp @ 000002c000490f00] Cannot open connection tcp://127.0.0.1:1935?tcp_nodelay=0
2022-10-19 09:29:48,136 [Thread-16] ERROR [com.suke.axsc.web.handler.CustomOutHandlerMethod] CustomOutHandlerMethod.java:41 - live1ä»»åŠ¡å¯èƒ½å‘ç”Ÿç½‘ç»œæ•…éšœï¼šrtmp://127.0.0.1:1935/hls/live1: Unknown error
2022-10-19 09:29:48,136 [Thread-16] ERROR [com.suke.axsc.web.handler.CustomOutHandlerMethod] CustomOutHandlerMethod.java:42 - å¤±è´¥ï¼Œè®¾ç½®ä¸­æ–­çŠ¶æ€
2022-10-19 09:29:48,136 [Thread-16] ERROR [com.suke.axsc.common.push.handler.OutHandler] OutHandler.java:105 - æ£€æµ‹åˆ°ä¸­æ–­ï¼Œæäº¤é‡å¯ä»»åŠ¡ç»™ä¿æ´»å¤„ç†å™¨
2022-10-19 09:29:48,138 [nioEventLoopGroup-4-1] WARN  [io.netty.util.ReferenceCountUtil] ReferenceCountUtil.java:118 - Failed to release a message: TextWebSocketFrame(data: UnpooledByteBufAllocator$InstrumentedUnpooledUnsafeHeapByteBuf(freed))
io.netty.util.IllegalReferenceCountException: refCnt: 0, decrement: 1
	at io.netty.util.internal.ReferenceCountUpdater.toLiveRealRefCnt(ReferenceCountUpdater.java:83)
	at io.netty.util.internal.ReferenceCountUpdater.release(ReferenceCountUpdater.java:147)
	at io.netty.buffer.AbstractReferenceCountedByteBuf.release(AbstractReferenceCountedByteBuf.java:101)
	at io.netty.buffer.DefaultByteBufHolder.release(DefaultByteBufHolder.java:111)
	at io.netty.util.ReferenceCountUtil.release(ReferenceCountUtil.java:90)
	at io.netty.util.ReferenceCountUtil.safeRelease(ReferenceCountUtil.java:116)
	at io.netty.handler.codec.MessageToMessageEncoder.write(MessageToMessageEncoder.java:92)
	at io.netty.channel.AbstractChannelHandlerContext.invokeWrite0(AbstractChannelHandlerContext.java:717)
	at io.netty.channel.AbstractChannelHandlerContext.invokeWriteAndFlush(AbstractChannelHandlerContext.java:764)
	at io.netty.channel.AbstractChannelHandlerContext$WriteTask.run(AbstractChannelHandlerContext.java:1071)
	at io.netty.util.concurrent.AbstractEventExecutor.runTask(AbstractEventExecutor.java:174)
	at io.netty.util.concurrent.AbstractEventExecutor.safeExecute$$$capture(AbstractEventExecutor.java:167)
	at io.netty.util.concurrent.AbstractEventExecutor.safeExecute(AbstractEventExecutor.java)
	at io.netty.util.concurrent.SingleThreadEventExecutor.runAllTasks(SingleThreadEventExecutor.java:470)
	at io.netty.channel.nio.NioEventLoop.run(NioEventLoop.java:569)
	at io.netty.util.concurrent.SingleThreadEventExecutor$4.run(SingleThreadEventExecutor.java:997)
	at io.netty.util.internal.ThreadExecutorMap$2.run(ThreadExecutorMap.java:74)
	at io.netty.util.concurrent.FastThreadLocalRunnable.run(FastThreadLocalRunnable.java:30)
	at java.lang.Thread.run(Thread.java:745)
2022-10-19 09:29:48,140 [nioEventLoopGroup-4-1] WARN  [io.netty.channel.AbstractChannelHandlerContext] PromiseNotificationUtil.java:69 - Failed to mark a promise as failure because it has failed already: DefaultChannelPromise@27698b9(failure: java.lang.ThreadDeath), unnotified cause: java.lang.ThreadDeath
	at java.lang.Thread.stop(Thread.java:850)
	at com.suke.axsc.common.push.util.ExecUtil.stop(ExecUtil.java:57)
	at com.suke.axsc.common.push.util.ExecUtil.stop(ExecUtil.java:69)
	at com.suke.axsc.common.push.util.ExecUtil.restart(ExecUtil.java:108)
	at com.suke.axsc.common.push.handler.KeepAliveHandler.run(KeepAliveHandler.java:77)

io.netty.handler.codec.EncoderException: io.netty.util.IllegalReferenceCountException: refCnt: 0
	at io.netty.handler.codec.MessageToMessageEncoder.write(MessageToMessageEncoder.java:107)
	at io.netty.channel.AbstractChannelHandlerContext.invokeWrite0(AbstractChannelHandlerContext.java:717)
	at io.netty.channel.AbstractChannelHandlerContext.invokeWriteAndFlush(AbstractChannelHandlerContext.java:764)
	at io.netty.channel.AbstractChannelHandlerContext$WriteTask.run(AbstractChannelHandlerContext.java:1071)
	at io.netty.util.concurrent.AbstractEventExecutor.runTask(AbstractEventExecutor.java:174)
	at io.netty.util.concurrent.AbstractEventExecutor.safeExecute$$$capture(AbstractEventExecutor.java:167)
	at io.netty.util.concurrent.AbstractEventExecutor.safeExecute(AbstractEventExecutor.java)
	at io.netty.util.concurrent.SingleThreadEventExecutor.runAllTasks(SingleThreadEventExecutor.java:470)
	at io.netty.channel.nio.NioEventLoop.run(NioEventLoop.java:569)
	at io.netty.util.concurrent.SingleThreadEventExecutor$4.run(SingleThreadEventExecutor.java:997)
	at io.netty.util.internal.ThreadExecutorMap$2.run(ThreadExecutorMap.java:74)
	at io.netty.util.concurrent.FastThreadLocalRunnable.run(FastThreadLocalRunnable.java:30)
	at java.lang.Thread.run(Thread.java:745)
Caused by: io.netty.util.IllegalReferenceCountException: refCnt: 0
	at io.netty.buffer.ByteBufUtil.ensureAccessible(ByteBufUtil.java:125)
	at io.netty.buffer.DefaultByteBufHolder.content(DefaultByteBufHolder.java:35)
	at io.netty.handler.codec.http.websocketx.WebSocket08FrameEncoder.encode(WebSocket08FrameEncoder.java:108)
	at io.netty.handler.codec.http.websocketx.WebSocket08FrameEncoder.encode(WebSocket08FrameEncoder.java:74)
	at io.netty.handler.codec.MessageToMessageEncoder.write(MessageToMessageEncoder.java:90)
	... 12 common frames omitted
2022-10-19 09:29:48,140 [nioEventLoopGroup-4-1] WARN  [io.netty.util.concurrent.AbstractEventExecutor] AbstractEventExecutor.java:169 - A task raised an exception. Task: io.netty.channel.AbstractChannelHandlerContext$WriteTask@52e25e46
java.lang.IllegalStateException: Object has been recycled already.
	at io.netty.util.Recycler$DefaultHandle.toAvailable(Recycler.java:252)
	at io.netty.util.Recycler$LocalPool.release(Recycler.java:287)
	at io.netty.util.Recycler$DefaultHandle.recycle(Recycler.java:231)
	at io.netty.channel.AbstractChannelHandlerContext$WriteTask.recycle(AbstractChannelHandlerContext.java:1097)
	at io.netty.channel.AbstractChannelHandlerContext$WriteTask.run(AbstractChannelHandlerContext.java:1074)
	at io.netty.util.concurrent.AbstractEventExecutor.runTask(AbstractEventExecutor.java:174)
	at io.netty.util.concurrent.AbstractEventExecutor.safeExecute$$$capture(AbstractEventExecutor.java:167)
	at io.netty.util.concurrent.AbstractEventExecutor.safeExecute(AbstractEventExecutor.java)
	at io.netty.util.concurrent.SingleThreadEventExecutor.runAllTasks(SingleThreadEventExecutor.java:470)
	at io.netty.channel.nio.NioEventLoop.run(NioEventLoop.java:569)
	at io.netty.util.concurrent.SingleThreadEventExecutor$4.run(SingleThreadEventExecutor.java:997)
	at io.netty.util.internal.ThreadExecutorMap$2.run(ThreadExecutorMap.java:74)
	at io.netty.util.concurrent.FastThreadLocalRunnable.run(FastThreadLocalRunnable.java:30)
	at java.lang.Thread.run(Thread.java:745)
2022-10-19 09:29:48,141 [Thread-3] ERROR [com.suke.axsc.common.push.handler.KeepAliveHandler] KeepAliveHandler.java:73 - å‡†å¤‡é‡å¯ä»»åŠ¡ï¼š[live1]
2022-10-19 09:29:48,141 [Thread-17] INFO  [com.suke.axsc.common.push.handler.OutHandler] OutHandler.java:100 - live1å¼€å§‹æ¨æµï¼
2022-10-19 09:29:48,153 [Thread-18] INFO  [com.suke.axsc.common.push.handler.OutHandler] OutHandler.java:100 - live1å¼€å§‹æ¨æµï¼
2022-10-19 09:29:48,176 [Thread-18] INFO  [com.suke.axsc.web.handler.CustomOutHandlerMethod] CustomOutHandlerMethod.java:59 - live1æ—¥å¿—ï¼šffmpeg version N-108404-gc03f9654c9-20220927 Copyright (c) 2000-2022 the FFmpeg developers
2022-10-19 09:29:48,176 [Thread-18] INFO  [com.suke.axsc.web.handler.CustomOutHandlerMethod] CustomOutHandlerMethod.java:59 - live1æ—¥å¿—ï¼š  built with gcc 12.1.0 (crosstool-NG 1.25.0.55_3defb7b)
2022-10-19 09:29:48,177 [Thread-18] INFO  [com.suke.axsc.web.handler.CustomOutHandlerMethod] CustomOutHandlerMethod.java:59 - live1æ—¥å¿—ï¼š  configuration: --prefix=/ffbuild/prefix --pkg-config-flags=--static --pkg-config=pkg-config --cross-prefix=x86_64-w64-mingw32- --arch=x86_64 --target-os=mingw32 --enable-gpl --enable-version3 --disable-debug --disable-w32threads --enable-pthreads --enable-iconv --enable-libxml2 --enable-zlib --enable-libfreetype --enable-libfribidi --enable-gmp --enable-lzma --enable-fontconfig --enable-libvorbis --enable-opencl --disable-libpulse --enable-libvmaf --disable-libxcb --disable-xlib --enable-amf --enable-libaom --enable-libaribb24 --enable-avisynth --enable-libdav1d --enable-libdavs2 --disable-libfdk-aac --enable-ffnvcodec --enable-cuda-llvm --enable-frei0r --enable-libgme --enable-libkvazaar --enable-libass --enable-libbluray --enable-libjxl --enable-libmp3lame --enable-libopus --enable-librist --enable-libssh --enable-libtheora --enable-libvpx --enable-libwebp --enable-lv2 --enable-libmfx --enable-libopencore-amrnb --enable-libopencore-amrwb --enable-libopenh264 --enable-libopenjpeg --enable-libopenmpt --enable-librav1e --enable-librubberband --enable-schannel --enable-sdl2 --enable-libsoxr --enable-libsrt --enable-libsvtav1 --enable-libtwolame --enable-libuavs3d --disable-libdrm --disable-vaapi --enable-libvidstab --enable-vulkan --enable-libshaderc --enable-libplacebo --enable-libx264 --enable-libx265 --enable-libxavs2 --enable-libxvid --enable-libzimg --enable-libzvbi --extra-cflags=-DLIBTWOLAME_STATIC --extra-cxxflags= --extra-ldflags=-pthread --extra-ldexeflags= --extra-libs=-lgomp --extra-version=20220927
2022-10-19 09:29:48,177 [Thread-18] INFO  [com.suke.axsc.web.handler.CustomOutHandlerMethod] CustomOutHandlerMethod.java:59 - live1æ—¥å¿—ï¼š  libavutil      57. 37.100 / 57. 37.100
2022-10-19 09:29:48,177 [Thread-18] INFO  [com.suke.axsc.web.handler.CustomOutHandlerMethod] CustomOutHandlerMethod.java:59 - live1æ—¥å¿—ï¼š  libavcodec     59. 48.100 / 59. 48.100
2022-10-19 09:29:48,177 [Thread-18] INFO  [com.suke.axsc.web.handler.CustomOutHandlerMethod] CustomOutHandlerMethod.java:59 - live1æ—¥å¿—ï¼š  libavformat    59. 33.100 / 59. 33.100
2022-10-19 09:29:48,177 [Thread-18] INFO  [com.suke.axsc.web.handler.CustomOutHandlerMethod] CustomOutHandlerMethod.java:59 - live1æ—¥å¿—ï¼š  libavdevice    59.  8.101 / 59.  8.101
2022-10-19 09:29:48,178 [Thread-18] INFO  [com.suke.axsc.web.handler.CustomOutHandlerMethod] CustomOutHandlerMethod.java:59 - live1æ—¥å¿—ï¼š  libavfilter     8. 49.100 /  8. 49.100
2022-10-19 09:29:48,178 [Thread-18] INFO  [com.suke.axsc.web.handler.CustomOutHandlerMethod] CustomOutHandlerMethod.java:59 - live1æ—¥å¿—ï¼š  libswscale      6.  8.112 /  6.  8.112
2022-10-19 09:29:48,178 [Thread-18] INFO  [com.suke.axsc.web.handler.CustomOutHandlerMethod] CustomOutHandlerMethod.java:59 - live1æ—¥å¿—ï¼š  libswresample   4.  9.100 /  4.  9.100
2022-10-19 09:29:48,178 [Thread-18] INFO  [com.suke.axsc.web.handler.CustomOutHandlerMethod] CustomOutHandlerMethod.java:59 - live1æ—¥å¿—ï¼š  libpostproc    56.  7.100 / 56.  7.100
2022-10-19 09:29:53,586 [Thread-18] INFO  [com.suke.axsc.web.handler.CustomOutHandlerMethod] CustomOutHandlerMethod.java:59 - live1æ—¥å¿—ï¼š[rtsp @ 000002453e742c00] Could not find codec parameters for stream 1 (Audio: none, 16000 Hz, mono): unknown codec
2022-10-19 09:29:53,587 [Thread-18] INFO  [com.suke.axsc.web.handler.CustomOutHandlerMethod] CustomOutHandlerMethod.java:59 - live1æ—¥å¿—ï¼šConsider increasing the value for the 'analyzeduration' (0) and 'probesize' (5000000) options
2022-10-19 09:29:53,587 [Thread-18] INFO  [com.suke.axsc.web.handler.CustomOutHandlerMethod] CustomOutHandlerMethod.java:59 - live1æ—¥å¿—ï¼šInput #0, rtsp, from 'rtsp://admin:admin172839@192.168.0.209:1024/Streaming/Channels/101':
2022-10-19 09:29:53,587 [Thread-18] INFO  [com.suke.axsc.web.handler.CustomOutHandlerMethod] CustomOutHandlerMethod.java:59 - live1æ—¥å¿—ï¼š  Metadata:
2022-10-19 09:29:53,588 [Thread-18] INFO  [com.suke.axsc.web.handler.CustomOutHandlerMethod] CustomOutHandlerMethod.java:59 - live1æ—¥å¿—ï¼š    title           : HIK Media Server V3.3.11
2022-10-19 09:29:53,588 [Thread-18] INFO  [com.suke.axsc.web.handler.CustomOutHandlerMethod] CustomOutHandlerMethod.java:59 - live1æ—¥å¿—ï¼š    comment         : HIK Media Server Session Description : standard
2022-10-19 09:29:53,588 [Thread-18] INFO  [com.suke.axsc.web.handler.CustomOutHandlerMethod] CustomOutHandlerMethod.java:59 - live1æ—¥å¿—ï¼š  Duration: N/A, start: 0.040000, bitrate: N/A
2022-10-19 09:29:53,588 [Thread-18] INFO  [com.suke.axsc.web.handler.CustomOutHandlerMethod] CustomOutHandlerMethod.java:59 - live1æ—¥å¿—ï¼š  Stream #0:0: Video: h264 (Main), yuvj420p(pc, bt709, progressive), 1920x1080, 25 fps, 25 tbr, 90k tbn
2022-10-19 09:29:53,588 [Thread-18] INFO  [com.suke.axsc.web.handler.CustomOutHandlerMethod] CustomOutHandlerMethod.java:59 - live1æ—¥å¿—ï¼š  Stream #0:1: Audio: none, 16000 Hz, mono
2022-10-19 09:29:58,602 [Thread-18] ERROR [com.suke.axsc.web.handler.CustomOutHandlerMethod] CustomOutHandlerMethod.java:31 - live1ä»»åŠ¡å¯èƒ½å‘ç”Ÿæ•…éšœï¼š[tcp @ 000002453f03eb40] Connection to tcp://127.0.0.1:1935?tcp_nodelay=0 failed: Error number -138 occurred
2022-10-19 09:29:58,602 [Thread-18] ERROR [com.suke.axsc.web.handler.CustomOutHandlerMethod] CustomOutHandlerMethod.java:32 - å¤±è´¥ï¼Œè®¾ç½®ä¸­æ–­çŠ¶æ€
2022-10-19 09:29:58,602 [Thread-18] ERROR [com.suke.axsc.common.push.handler.OutHandler] OutHandler.java:105 - æ£€æµ‹åˆ°ä¸­æ–­ï¼Œæäº¤é‡å¯ä»»åŠ¡ç»™ä¿æ´»å¤„ç†å™¨
2022-10-19 09:29:58,602 [Thread-3] ERROR [com.suke.axsc.common.push.handler.KeepAliveHandler] KeepAliveHandler.java:73 - å‡†å¤‡é‡å¯ä»»åŠ¡ï¼š[live1]
2022-10-19 09:29:58,602 [Thread-18] INFO  [com.suke.axsc.web.handler.CustomOutHandlerMethod] CustomOutHandlerMethod.java:59 - live1æ—¥å¿—ï¼š[rtmp @ 000002453e8e0ec0] Cannot open connection tcp://127.0.0.1:1935?tcp_nodelay=0
2022-10-19 09:29:58,609 [Thread-19] INFO  [com.suke.axsc.common.push.handler.OutHandler] OutHandler.java:100 - live1å¼€å§‹æ¨æµï¼
2022-10-19 09:29:58,630 [Thread-19] INFO  [com.suke.axsc.web.handler.CustomOutHandlerMethod] CustomOutHandlerMethod.java:59 - live1æ—¥å¿—ï¼šffmpeg version N-108404-gc03f9654c9-20220927 Copyright (c) 2000-2022 the FFmpeg developers
2022-10-19 09:29:58,630 [Thread-19] INFO  [com.suke.axsc.web.handler.CustomOutHandlerMethod] CustomOutHandlerMethod.java:59 - live1æ—¥å¿—ï¼š  built with gcc 12.1.0 (crosstool-NG 1.25.0.55_3defb7b)
2022-10-19 09:29:58,630 [Thread-19] INFO  [com.suke.axsc.web.handler.CustomOutHandlerMethod] CustomOutHandlerMethod.java:59 - live1æ—¥å¿—ï¼š  configuration: --prefix=/ffbuild/prefix --pkg-config-flags=--static --pkg-config=pkg-config --cross-prefix=x86_64-w64-mingw32- --arch=x86_64 --target-os=mingw32 --enable-gpl --enable-version3 --disable-debug --disable-w32threads --enable-pthreads --enable-iconv --enable-libxml2 --enable-zlib --enable-libfreetype --enable-libfribidi --enable-gmp --enable-lzma --enable-fontconfig --enable-libvorbis --enable-opencl --disable-libpulse --enable-libvmaf --disable-libxcb --disable-xlib --enable-amf --enable-libaom --enable-libaribb24 --enable-avisynth --enable-libdav1d --enable-libdavs2 --disable-libfdk-aac --enable-ffnvcodec --enable-cuda-llvm --enable-frei0r --enable-libgme --enable-libkvazaar --enable-libass --enable-libbluray --enable-libjxl --enable-libmp3lame --enable-libopus --enable-librist --enable-libssh --enable-libtheora --enable-libvpx --enable-libwebp --enable-lv2 --enable-libmfx --enable-libopencore-amrnb --enable-libopencore-amrwb --enable-libopenh264 --enable-libopenjpeg --enable-libopenmpt --enable-librav1e --enable-librubberband --enable-schannel --enable-sdl2 --enable-libsoxr --enable-libsrt --enable-libsvtav1 --enable-libtwolame --enable-libuavs3d --disable-libdrm --disable-vaapi --enable-libvidstab --enable-vulkan --enable-libshaderc --enable-libplacebo --enable-libx264 --enable-libx265 --enable-libxavs2 --enable-libxvid --enable-libzimg --enable-libzvbi --extra-cflags=-DLIBTWOLAME_STATIC --extra-cxxflags= --extra-ldflags=-pthread --extra-ldexeflags= --extra-libs=-lgomp --extra-version=20220927
2022-10-19 09:29:58,630 [Thread-19] INFO  [com.suke.axsc.web.handler.CustomOutHandlerMethod] CustomOutHandlerMethod.java:59 - live1æ—¥å¿—ï¼š  libavutil      57. 37.100 / 57. 37.100
2022-10-19 09:29:58,631 [Thread-19] INFO  [com.suke.axsc.web.handler.CustomOutHandlerMethod] CustomOutHandlerMethod.java:59 - live1æ—¥å¿—ï¼š  libavcodec     59. 48.100 / 59. 48.100
2022-10-19 09:29:58,631 [Thread-19] INFO  [com.suke.axsc.web.handler.CustomOutHandlerMethod] CustomOutHandlerMethod.java:59 - live1æ—¥å¿—ï¼š  libavformat    59. 33.100 / 59. 33.100
2022-10-19 09:29:58,631 [Thread-19] INFO  [com.suke.axsc.web.handler.CustomOutHandlerMethod] CustomOutHandlerMethod.java:59 - live1æ—¥å¿—ï¼š  libavdevice    59.  8.101 / 59.  8.101
2022-10-19 09:29:58,631 [Thread-19] INFO  [com.suke.axsc.web.handler.CustomOutHandlerMethod] CustomOutHandlerMethod.java:59 - live1æ—¥å¿—ï¼š  libavfilter     8. 49.100 /  8. 49.100
2022-10-19 09:29:58,631 [Thread-19] INFO  [com.suke.axsc.web.handler.CustomOutHandlerMethod] CustomOutHandlerMethod.java:59 - live1æ—¥å¿—ï¼š  libswscale      6.  8.112 /  6.  8.112
2022-10-19 09:29:58,631 [Thread-19] INFO  [com.suke.axsc.web.handler.CustomOutHandlerMethod] CustomOutHandlerMethod.java:59 - live1æ—¥å¿—ï¼š  libswresample   4.  9.100 /  4.  9.100
2022-10-19 09:29:58,632 [Thread-19] INFO  [com.suke.axsc.web.handler.CustomOutHandlerMethod] CustomOutHandlerMethod.java:59 - live1æ—¥å¿—ï¼š  libpostproc    56.  7.100 / 56.  7.100
2022-10-19 09:30:04,053 [Thread-19] INFO  [com.suke.axsc.web.handler.CustomOutHandlerMethod] CustomOutHandlerMethod.java:59 - live1æ—¥å¿—ï¼š[rtsp @ 000001a0290f2c00] Could not find codec parameters for stream 1 (Audio: none, 16000 Hz, mono): unknown codec
2022-10-19 09:30:04,053 [Thread-19] INFO  [com.suke.axsc.web.handler.CustomOutHandlerMethod] CustomOutHandlerMethod.java:59 - live1æ—¥å¿—ï¼šConsider increasing the value for the 'analyzeduration' (0) and 'probesize' (5000000) options
2022-10-19 09:30:04,054 [Thread-19] INFO  [com.suke.axsc.web.handler.CustomOutHandlerMethod] CustomOutHandlerMethod.java:59 - live1æ—¥å¿—ï¼šInput #0, rtsp, from 'rtsp://admin:admin172839@192.168.0.209:1024/Streaming/Channels/101':
2022-10-19 09:30:04,054 [Thread-19] INFO  [com.suke.axsc.web.handler.CustomOutHandlerMethod] CustomOutHandlerMethod.java:59 - live1æ—¥å¿—ï¼š  Metadata:
2022-10-19 09:30:04,054 [Thread-19] INFO  [com.suke.axsc.web.handler.CustomOutHandlerMethod] CustomOutHandlerMethod.java:59 - live1æ—¥å¿—ï¼š    title           : HIK Media Server V3.3.11
2022-10-19 09:30:04,054 [Thread-19] INFO  [com.suke.axsc.web.handler.CustomOutHandlerMethod] CustomOutHandlerMethod.java:59 - live1æ—¥å¿—ï¼š    comment         : HIK Media Server Session Description : standard
2022-10-19 09:30:04,054 [Thread-19] INFO  [com.suke.axsc.web.handler.CustomOutHandlerMethod] CustomOutHandlerMethod.java:59 - live1æ—¥å¿—ï¼š  Duration: N/A, start: 0.040000, bitrate: N/A
2022-10-19 09:30:04,054 [Thread-19] INFO  [com.suke.axsc.web.handler.CustomOutHandlerMethod] CustomOutHandlerMethod.java:59 - live1æ—¥å¿—ï¼š  Stream #0:0: Video: h264 (Main), yuvj420p(pc, bt709, progressive), 1920x1080, 25 fps, 25 tbr, 90k tbn
2022-10-19 09:30:04,055 [Thread-19] INFO  [com.suke.axsc.web.handler.CustomOutHandlerMethod] CustomOutHandlerMethod.java:59 - live1æ—¥å¿—ï¼š  Stream #0:1: Audio: none, 16000 Hz, mono
2022-10-19 09:30:05,055 [Thread-19] INFO  [com.suke.axsc.web.handler.CustomOutHandlerMethod] CustomOutHandlerMethod.java:59 - live1æ—¥å¿—ï¼šOutput #0, flv, to 'rtmp://127.0.0.1:1935/hls/live1':
2022-10-19 09:30:05,055 [Thread-19] INFO  [com.suke.axsc.web.handler.CustomOutHandlerMethod] CustomOutHandlerMethod.java:59 - live1æ—¥å¿—ï¼š  Metadata:
2022-10-19 09:30:05,055 [Thread-19] INFO  [com.suke.axsc.web.handler.CustomOutHandlerMethod] CustomOutHandlerMethod.java:59 - live1æ—¥å¿—ï¼š    title           : HIK Media Server V3.3.11
2022-10-19 09:30:05,055 [Thread-19] INFO  [com.suke.axsc.web.handler.CustomOutHandlerMethod] CustomOutHandlerMethod.java:59 - live1æ—¥å¿—ï¼š    comment         : HIK Media Server Session Description : standard
2022-10-19 09:30:05,056 [Thread-19] INFO  [com.suke.axsc.web.handler.CustomOutHandlerMethod] CustomOutHandlerMethod.java:59 - live1æ—¥å¿—ï¼š    encoder         : Lavf59.33.100
2022-10-19 09:30:05,056 [Thread-19] INFO  [com.suke.axsc.web.handler.CustomOutHandlerMethod] CustomOutHandlerMethod.java:59 - live1æ—¥å¿—ï¼š  Stream #0:0: Video: h264 (Main) ([7][0][0][0] / 0x0007), yuvj420p(pc, bt709, progressive), 1920x1080, q=2-31, 25 fps, 25 tbr, 1k tbn
2022-10-19 09:30:05,056 [Thread-19] INFO  [com.suke.axsc.web.handler.CustomOutHandlerMethod] CustomOutHandlerMethod.java:59 - live1æ—¥å¿—ï¼šStream mapping:
2022-10-19 09:30:05,056 [Thread-19] INFO  [com.suke.axsc.web.handler.CustomOutHandlerMethod] CustomOutHandlerMethod.java:59 - live1æ—¥å¿—ï¼š  Stream #0:0 -> #0:0 (copy)
2022-10-19 09:30:05,056 [Thread-19] INFO  [com.suke.axsc.web.handler.CustomOutHandlerMethod] CustomOutHandlerMethod.java:59 - live1æ—¥å¿—ï¼šPress [q] to stop, [?] for help
2022-10-19 09:30:05,065 [Thread-19] INFO  [com.suke.axsc.web.handler.CustomOutHandlerMethod] CustomOutHandlerMethod.java:59 - live1æ—¥å¿—ï¼š[rtsp @ 000001a0290f2c00] Thread message queue blocking; consider raising the thread_queue_size option (current value: 16)
2022-10-19 09:30:41,956 [defaultEventExecutorGroup-2-1] INFO  [com.suke.axsc.web.component.NettyWebSocketServer] NettyWebSocketServer.java:115 - NettyWebSocket[64259],å…³é—­æ—¥å¿—è®¢é˜…
2022-10-19 13:32:41,549 [SpringApplicationShutdownHook] INFO  [com.suke.axsc.web.config.ServiceStopListener] ServiceStopListener.java:26 - æœåŠ¡å³å°†åœæ­¢...
2022-10-19 13:32:41,551 [SpringApplicationShutdownHook] INFO  [com.suke.axsc.common.push.cmd.CommandManagerImpl] CommandManagerImpl.java:113 - åœæ­¢äº†1ä¸ªä»»åŠ¡ï¼
2022-10-19 13:32:41,551 [SpringApplicationShutdownHook] INFO  [com.suke.axsc.web.config.ServiceStopListener] ServiceStopListener.java:28 - é”€æ¯åå°èµ„æºå’Œä¿æ´»çº¿ç¨‹ï¼
2022-10-19 13:32:41,598 [SpringApplicationShutdownHook] INFO  [com.zaxxer.hikari.HikariDataSource] HikariDataSource.java:350 - HikariPool-1 - Shutdown initiated...
2022-10-19 13:32:41,602 [SpringApplicationShutdownHook] INFO  [com.zaxxer.hikari.HikariDataSource] HikariDataSource.java:352 - HikariPool-1 - Shutdown completed.
2022-10-19 13:32:49,932 [main] INFO  [com.suke.axsc.web.WebApplication] StartupInfoLogger.java:55 - Starting WebApplication using Java 1.8.0_77 on USERCHI-SALSHQ8 with PID 13916 (E:\github\push-stream\web-app\target\classes started by Administrator in E:\github\push-stream)
2022-10-19 13:32:49,934 [main] INFO  [com.suke.axsc.web.WebApplication] SpringApplication.java:634 - No active profile set, falling back to 1 default profile: "default"
2022-10-19 13:32:50,603 [main] INFO  [o.s.boot.web.embedded.tomcat.TomcatWebServer] TomcatWebServer.java:108 - Tomcat initialized with port(s): 8055 (http)
2022-10-19 13:32:50,609 [main] INFO  [org.apache.coyote.http11.Http11NioProtocol] DirectJDKLog.java:173 - Initializing ProtocolHandler ["http-nio-8055"]
2022-10-19 13:32:50,609 [main] INFO  [org.apache.catalina.core.StandardService] DirectJDKLog.java:173 - Starting service [Tomcat]
2022-10-19 13:32:50,610 [main] INFO  [org.apache.catalina.core.StandardEngine] DirectJDKLog.java:173 - Starting Servlet engine: [Apache Tomcat/9.0.65]
2022-10-19 13:32:50,697 [main] INFO  [o.a.c.core.ContainerBase.[Tomcat].[localhost].[/]] DirectJDKLog.java:173 - Initializing Spring embedded WebApplicationContext
2022-10-19 13:32:50,697 [main] INFO  [o.s.b.w.s.c.ServletWebServerApplicationContext] ServletWebServerApplicationContext.java:292 - Root WebApplicationContext: initialization completed in 735 ms
2022-10-19 13:32:51,173 [main] INFO  [o.s.b.a.web.servlet.WelcomePageHandlerMapping] WelcomePageHandlerMapping.java:53 - Adding welcome page: class path resource [static/index.html]
2022-10-19 13:32:51,234 [main] INFO  [c.s.a.common.push.util.ApplicationContextRegister] ApplicationContextRegister.java:27 - ApplicationContext register-->org.springframework.boot.web.servlet.context.AnnotationConfigServletWebServerApplicationContext@749c877b, started on Wed Oct 19 13:32:49 CST 2022
2022-10-19 13:32:51,456 [main] INFO  [org.yeauty.standard.ServerEndpointExporter] ServerEndpointExporter.java:131 - [34mNetty WebSocket started on port: 8056 with context path(s): '/websocket/{sid}' .[0m
2022-10-19 13:32:51,459 [main] INFO  [org.apache.coyote.http11.Http11NioProtocol] DirectJDKLog.java:173 - Starting ProtocolHandler ["http-nio-8055"]
2022-10-19 13:32:51,465 [main] INFO  [o.s.boot.web.embedded.tomcat.TomcatWebServer] TomcatWebServer.java:220 - Tomcat started on port(s): 8055 (http) with context path ''
2022-10-19 13:32:51,472 [main] INFO  [com.suke.axsc.web.WebApplication] StartupInfoLogger.java:61 - Started WebApplication in 1.866 seconds (JVM running for 2.27)
2022-10-19 13:32:51,474 [main] INFO  [com.suke.axsc.web.WebApplication] WebApplication.java:20 - æ¨æµæœåŠ¡å¯åŠ¨æˆåŠŸï¼šhttp://localhost:8055/index.html
2022-10-19 13:38:00,280 [SpringApplicationShutdownHook] INFO  [com.suke.axsc.web.config.ServiceStopListener] ServiceStopListener.java:26 - æœåŠ¡å³å°†åœæ­¢...
2022-10-19 13:38:00,280 [SpringApplicationShutdownHook] INFO  [com.suke.axsc.common.push.cmd.CommandManagerImpl] CommandManagerImpl.java:113 - åœæ­¢äº†0ä¸ªä»»åŠ¡ï¼
2022-10-19 13:38:00,280 [SpringApplicationShutdownHook] INFO  [com.suke.axsc.web.config.ServiceStopListener] ServiceStopListener.java:28 - é”€æ¯åå°èµ„æºå’Œä¿æ´»çº¿ç¨‹ï¼
2022-10-19 13:38:05,989 [main] INFO  [com.suke.axsc.web.WebApplication] StartupInfoLogger.java:55 - Starting WebApplication using Java 1.8.0_77 on USERCHI-SALSHQ8 with PID 14140 (E:\github\push-stream\web-app\target\classes started by Administrator in E:\github\push-stream)
2022-10-19 13:38:05,991 [main] INFO  [com.suke.axsc.web.WebApplication] SpringApplication.java:634 - No active profile set, falling back to 1 default profile: "default"
2022-10-19 13:38:06,673 [main] INFO  [o.s.boot.web.embedded.tomcat.TomcatWebServer] TomcatWebServer.java:108 - Tomcat initialized with port(s): 8055 (http)
2022-10-19 13:38:06,679 [main] INFO  [org.apache.coyote.http11.Http11NioProtocol] DirectJDKLog.java:173 - Initializing ProtocolHandler ["http-nio-8055"]
2022-10-19 13:38:06,679 [main] INFO  [org.apache.catalina.core.StandardService] DirectJDKLog.java:173 - Starting service [Tomcat]
2022-10-19 13:38:06,680 [main] INFO  [org.apache.catalina.core.StandardEngine] DirectJDKLog.java:173 - Starting Servlet engine: [Apache Tomcat/9.0.65]
2022-10-19 13:38:06,766 [main] INFO  [o.a.c.core.ContainerBase.[Tomcat].[localhost].[/]] DirectJDKLog.java:173 - Initializing Spring embedded WebApplicationContext
2022-10-19 13:38:06,767 [main] INFO  [o.s.b.w.s.c.ServletWebServerApplicationContext] ServletWebServerApplicationContext.java:292 - Root WebApplicationContext: initialization completed in 748 ms
2022-10-19 13:38:07,190 [main] INFO  [o.s.b.a.web.servlet.WelcomePageHandlerMapping] WelcomePageHandlerMapping.java:53 - Adding welcome page: class path resource [static/index.html]
2022-10-19 13:38:07,242 [main] INFO  [c.s.a.common.push.util.ApplicationContextRegister] ApplicationContextRegister.java:27 - ApplicationContext register-->org.springframework.boot.web.servlet.context.AnnotationConfigServletWebServerApplicationContext@749c877b, started on Wed Oct 19 13:38:06 CST 2022
2022-10-19 13:38:07,442 [main] INFO  [org.yeauty.standard.ServerEndpointExporter] ServerEndpointExporter.java:131 - [34mNetty WebSocket started on port: 8056 with context path(s): '/websocket/{sid}' .[0m
2022-10-19 13:38:07,445 [main] INFO  [org.apache.coyote.http11.Http11NioProtocol] DirectJDKLog.java:173 - Starting ProtocolHandler ["http-nio-8055"]
2022-10-19 13:38:07,451 [main] INFO  [o.s.boot.web.embedded.tomcat.TomcatWebServer] TomcatWebServer.java:220 - Tomcat started on port(s): 8055 (http) with context path ''
2022-10-19 13:38:07,458 [main] INFO  [com.suke.axsc.web.WebApplication] StartupInfoLogger.java:61 - Started WebApplication in 1.798 seconds (JVM running for 2.208)
2022-10-19 13:38:07,460 [main] INFO  [com.suke.axsc.web.WebApplication] WebApplication.java:20 - æ¨æµæœåŠ¡å¯åŠ¨æˆåŠŸï¼šhttp://localhost:8055/index.html
2022-10-19 13:41:30,331 [http-nio-8055-exec-1] INFO  [o.a.c.core.ContainerBase.[Tomcat].[localhost].[/]] DirectJDKLog.java:173 - Initializing Spring DispatcherServlet 'dispatcherServlet'
2022-10-19 13:41:30,331 [http-nio-8055-exec-1] INFO  [org.springframework.web.servlet.DispatcherServlet] FrameworkServlet.java:525 - Initializing Servlet 'dispatcherServlet'
2022-10-19 13:41:30,332 [http-nio-8055-exec-1] INFO  [org.springframework.web.servlet.DispatcherServlet] FrameworkServlet.java:547 - Completed initialization in 1 ms
2022-10-19 13:41:30,579 [http-nio-8055-exec-1] INFO  [com.zaxxer.hikari.HikariDataSource] HikariDataSource.java:110 - HikariPool-1 - Starting...
2022-10-19 13:41:30,597 [nioEventLoopGroup-4-1] INFO  [com.suke.axsc.web.component.NettyWebSocketServer] NettyWebSocketServer.java:73 - NettyWebSocket[64259],è¿æ¥æˆåŠŸ
2022-10-19 13:41:30,682 [http-nio-8055-exec-1] INFO  [com.zaxxer.hikari.HikariDataSource] HikariDataSource.java:123 - HikariPool-1 - Start completed.
2022-10-19 13:42:30,719 [SpringApplicationShutdownHook] INFO  [com.suke.axsc.web.config.ServiceStopListener] ServiceStopListener.java:26 - æœåŠ¡å³å°†åœæ­¢...
2022-10-19 13:42:30,719 [SpringApplicationShutdownHook] INFO  [com.suke.axsc.common.push.cmd.CommandManagerImpl] CommandManagerImpl.java:113 - åœæ­¢äº†0ä¸ªä»»åŠ¡ï¼
2022-10-19 13:42:30,720 [SpringApplicationShutdownHook] INFO  [com.suke.axsc.web.config.ServiceStopListener] ServiceStopListener.java:28 - é”€æ¯åå°èµ„æºå’Œä¿æ´»çº¿ç¨‹ï¼
2022-10-19 13:42:30,755 [SpringApplicationShutdownHook] INFO  [com.zaxxer.hikari.HikariDataSource] HikariDataSource.java:350 - HikariPool-1 - Shutdown initiated...
2022-10-19 13:42:30,758 [SpringApplicationShutdownHook] INFO  [com.zaxxer.hikari.HikariDataSource] HikariDataSource.java:352 - HikariPool-1 - Shutdown completed.
2022-10-19 13:42:36,802 [main] INFO  [com.suke.axsc.web.WebApplication] StartupInfoLogger.java:55 - Starting WebApplication using Java 1.8.0_77 on USERCHI-SALSHQ8 with PID 10484 (E:\github\push-stream\web-app\target\classes started by Administrator in E:\github\push-stream)
2022-10-19 13:42:36,805 [main] INFO  [com.suke.axsc.web.WebApplication] SpringApplication.java:634 - No active profile set, falling back to 1 default profile: "default"
2022-10-19 13:42:37,533 [main] INFO  [o.s.boot.web.embedded.tomcat.TomcatWebServer] TomcatWebServer.java:108 - Tomcat initialized with port(s): 8055 (http)
2022-10-19 13:42:37,539 [main] INFO  [org.apache.coyote.http11.Http11NioProtocol] DirectJDKLog.java:173 - Initializing ProtocolHandler ["http-nio-8055"]
2022-10-19 13:42:37,540 [main] INFO  [org.apache.catalina.core.StandardService] DirectJDKLog.java:173 - Starting service [Tomcat]
2022-10-19 13:42:37,540 [main] INFO  [org.apache.catalina.core.StandardEngine] DirectJDKLog.java:173 - Starting Servlet engine: [Apache Tomcat/9.0.65]
2022-10-19 13:42:37,629 [main] INFO  [o.a.c.core.ContainerBase.[Tomcat].[localhost].[/]] DirectJDKLog.java:173 - Initializing Spring embedded WebApplicationContext
2022-10-19 13:42:37,629 [main] INFO  [o.s.b.w.s.c.ServletWebServerApplicationContext] ServletWebServerApplicationContext.java:292 - Root WebApplicationContext: initialization completed in 792 ms
2022-10-19 13:42:38,048 [main] INFO  [o.s.b.a.web.servlet.WelcomePageHandlerMapping] WelcomePageHandlerMapping.java:53 - Adding welcome page: class path resource [static/index.html]
2022-10-19 13:42:38,101 [main] INFO  [c.s.a.common.push.util.ApplicationContextRegister] ApplicationContextRegister.java:27 - ApplicationContext register-->org.springframework.boot.web.servlet.context.AnnotationConfigServletWebServerApplicationContext@749c877b, started on Wed Oct 19 13:42:36 CST 2022
2022-10-19 13:42:38,304 [main] INFO  [org.yeauty.standard.ServerEndpointExporter] ServerEndpointExporter.java:131 - [34mNetty WebSocket started on port: 8056 with context path(s): '/websocket/{sid}' .[0m
2022-10-19 13:42:38,306 [main] INFO  [org.apache.coyote.http11.Http11NioProtocol] DirectJDKLog.java:173 - Starting ProtocolHandler ["http-nio-8055"]
2022-10-19 13:42:38,313 [main] INFO  [o.s.boot.web.embedded.tomcat.TomcatWebServer] TomcatWebServer.java:220 - Tomcat started on port(s): 8055 (http) with context path ''
2022-10-19 13:42:38,320 [main] INFO  [com.suke.axsc.web.WebApplication] StartupInfoLogger.java:61 - Started WebApplication in 1.873 seconds (JVM running for 2.296)
2022-10-19 13:42:38,321 [main] INFO  [com.suke.axsc.web.WebApplication] WebApplication.java:20 - æ¨æµæœåŠ¡å¯åŠ¨æˆåŠŸï¼šhttp://localhost:8055/index.html
2022-10-19 13:42:39,019 [http-nio-8055-exec-4] INFO  [o.a.c.core.ContainerBase.[Tomcat].[localhost].[/]] DirectJDKLog.java:173 - Initializing Spring DispatcherServlet 'dispatcherServlet'
2022-10-19 13:42:39,019 [http-nio-8055-exec-4] INFO  [org.springframework.web.servlet.DispatcherServlet] FrameworkServlet.java:525 - Initializing Servlet 'dispatcherServlet'
2022-10-19 13:42:39,021 [http-nio-8055-exec-4] INFO  [org.springframework.web.servlet.DispatcherServlet] FrameworkServlet.java:547 - Completed initialization in 1 ms
2022-10-19 13:42:50,933 [http-nio-8055-exec-5] INFO  [com.zaxxer.hikari.HikariDataSource] HikariDataSource.java:110 - HikariPool-1 - Starting...
2022-10-19 13:42:50,954 [nioEventLoopGroup-4-1] INFO  [com.suke.axsc.web.component.NettyWebSocketServer] NettyWebSocketServer.java:73 - NettyWebSocket[64259],è¿æ¥æˆåŠŸ
2022-10-19 13:42:51,037 [http-nio-8055-exec-5] INFO  [com.zaxxer.hikari.HikariDataSource] HikariDataSource.java:123 - HikariPool-1 - Start completed.
2022-10-19 13:44:18,679 [SpringApplicationShutdownHook] INFO  [com.suke.axsc.web.config.ServiceStopListener] ServiceStopListener.java:26 - æœåŠ¡å³å°†åœæ­¢...
2022-10-19 13:44:18,680 [SpringApplicationShutdownHook] INFO  [com.suke.axsc.common.push.cmd.CommandManagerImpl] CommandManagerImpl.java:113 - åœæ­¢äº†0ä¸ªä»»åŠ¡ï¼
2022-10-19 13:44:18,680 [SpringApplicationShutdownHook] INFO  [com.suke.axsc.web.config.ServiceStopListener] ServiceStopListener.java:28 - é”€æ¯åå°èµ„æºå’Œä¿æ´»çº¿ç¨‹ï¼
2022-10-19 13:44:18,717 [SpringApplicationShutdownHook] INFO  [com.zaxxer.hikari.HikariDataSource] HikariDataSource.java:350 - HikariPool-1 - Shutdown initiated...
2022-10-19 13:44:18,721 [SpringApplicationShutdownHook] INFO  [com.zaxxer.hikari.HikariDataSource] HikariDataSource.java:352 - HikariPool-1 - Shutdown completed.
2022-10-19 13:44:24,806 [main] INFO  [com.suke.axsc.web.WebApplication] StartupInfoLogger.java:55 - Starting WebApplication using Java 1.8.0_77 on USERCHI-SALSHQ8 with PID 13644 (E:\github\push-stream\web-app\target\classes started by Administrator in E:\github\push-stream)
2022-10-19 13:44:24,808 [main] INFO  [com.suke.axsc.web.WebApplication] SpringApplication.java:634 - No active profile set, falling back to 1 default profile: "default"
2022-10-19 13:44:25,515 [main] INFO  [o.s.boot.web.embedded.tomcat.TomcatWebServer] TomcatWebServer.java:108 - Tomcat initialized with port(s): 8055 (http)
2022-10-19 13:44:25,521 [main] INFO  [org.apache.coyote.http11.Http11NioProtocol] DirectJDKLog.java:173 - Initializing ProtocolHandler ["http-nio-8055"]
2022-10-19 13:44:25,522 [main] INFO  [org.apache.catalina.core.StandardService] DirectJDKLog.java:173 - Starting service [Tomcat]
2022-10-19 13:44:25,522 [main] INFO  [org.apache.catalina.core.StandardEngine] DirectJDKLog.java:173 - Starting Servlet engine: [Apache Tomcat/9.0.65]
2022-10-19 13:44:25,609 [main] INFO  [o.a.c.core.ContainerBase.[Tomcat].[localhost].[/]] DirectJDKLog.java:173 - Initializing Spring embedded WebApplicationContext
2022-10-19 13:44:25,610 [main] INFO  [o.s.b.w.s.c.ServletWebServerApplicationContext] ServletWebServerApplicationContext.java:292 - Root WebApplicationContext: initialization completed in 772 ms
2022-10-19 13:44:26,027 [main] INFO  [o.s.b.a.web.servlet.WelcomePageHandlerMapping] WelcomePageHandlerMapping.java:53 - Adding welcome page: class path resource [static/index.html]
2022-10-19 13:44:26,080 [main] INFO  [c.s.a.common.push.util.ApplicationContextRegister] ApplicationContextRegister.java:27 - ApplicationContext register-->org.springframework.boot.web.servlet.context.AnnotationConfigServletWebServerApplicationContext@749c877b, started on Wed Oct 19 13:44:24 CST 2022
2022-10-19 13:44:26,284 [main] INFO  [org.yeauty.standard.ServerEndpointExporter] ServerEndpointExporter.java:131 - [34mNetty WebSocket started on port: 8056 with context path(s): '/websocket/{sid}' .[0m
2022-10-19 13:44:26,287 [main] INFO  [org.apache.coyote.http11.Http11NioProtocol] DirectJDKLog.java:173 - Starting ProtocolHandler ["http-nio-8055"]
2022-10-19 13:44:26,293 [main] INFO  [o.s.boot.web.embedded.tomcat.TomcatWebServer] TomcatWebServer.java:220 - Tomcat started on port(s): 8055 (http) with context path ''
2022-10-19 13:44:26,300 [main] INFO  [com.suke.axsc.web.WebApplication] StartupInfoLogger.java:61 - Started WebApplication in 1.861 seconds (JVM running for 2.293)
2022-10-19 13:44:26,302 [main] INFO  [com.suke.axsc.web.WebApplication] WebApplication.java:20 - æ¨æµæœåŠ¡å¯åŠ¨æˆåŠŸï¼šhttp://localhost:8055/index.html
2022-10-19 13:44:27,132 [http-nio-8055-exec-1] INFO  [o.a.c.core.ContainerBase.[Tomcat].[localhost].[/]] DirectJDKLog.java:173 - Initializing Spring DispatcherServlet 'dispatcherServlet'
2022-10-19 13:44:27,132 [http-nio-8055-exec-1] INFO  [org.springframework.web.servlet.DispatcherServlet] FrameworkServlet.java:525 - Initializing Servlet 'dispatcherServlet'
2022-10-19 13:44:27,133 [http-nio-8055-exec-1] INFO  [org.springframework.web.servlet.DispatcherServlet] FrameworkServlet.java:547 - Completed initialization in 0 ms
2022-10-19 13:44:27,323 [http-nio-8055-exec-2] INFO  [com.zaxxer.hikari.HikariDataSource] HikariDataSource.java:110 - HikariPool-1 - Starting...
2022-10-19 13:44:27,340 [nioEventLoopGroup-4-1] INFO  [com.suke.axsc.web.component.NettyWebSocketServer] NettyWebSocketServer.java:73 - NettyWebSocket[64259],è¿æ¥æˆåŠŸ
2022-10-19 13:44:27,432 [http-nio-8055-exec-2] INFO  [com.zaxxer.hikari.HikariDataSource] HikariDataSource.java:123 - HikariPool-1 - Start completed.
2022-10-19 13:47:56,841 [defaultEventExecutorGroup-2-1] INFO  [com.suke.axsc.web.component.NettyWebSocketServer] NettyWebSocketServer.java:88 - NettyWebSocket[64259],é€€å‡ºè¿æ¥
2022-10-19 13:48:00,767 [SpringApplicationShutdownHook] INFO  [com.suke.axsc.web.config.ServiceStopListener] ServiceStopListener.java:26 - æœåŠ¡å³å°†åœæ­¢...
2022-10-19 13:48:00,767 [SpringApplicationShutdownHook] INFO  [com.suke.axsc.common.push.cmd.CommandManagerImpl] CommandManagerImpl.java:113 - åœæ­¢äº†0ä¸ªä»»åŠ¡ï¼
2022-10-19 13:48:00,767 [SpringApplicationShutdownHook] INFO  [com.suke.axsc.web.config.ServiceStopListener] ServiceStopListener.java:28 - é”€æ¯åå°èµ„æºå’Œä¿æ´»çº¿ç¨‹ï¼
2022-10-19 13:48:00,815 [SpringApplicationShutdownHook] INFO  [com.zaxxer.hikari.HikariDataSource] HikariDataSource.java:350 - HikariPool-1 - Shutdown initiated...
2022-10-19 13:48:00,817 [SpringApplicationShutdownHook] INFO  [com.zaxxer.hikari.HikariDataSource] HikariDataSource.java:352 - HikariPool-1 - Shutdown completed.
2022-10-19 13:48:09,845 [main] INFO  [com.suke.axsc.web.WebApplication] StartupInfoLogger.java:55 - Starting WebApplication using Java 1.8.0_77 on USERCHI-SALSHQ8 with PID 9664 (E:\github\push-stream\web-app\target\classes started by Administrator in E:\github\push-stream)
2022-10-19 13:48:09,848 [main] INFO  [com.suke.axsc.web.WebApplication] SpringApplication.java:634 - No active profile set, falling back to 1 default profile: "default"
2022-10-19 13:48:10,551 [main] INFO  [o.s.boot.web.embedded.tomcat.TomcatWebServer] TomcatWebServer.java:108 - Tomcat initialized with port(s): 8055 (http)
2022-10-19 13:48:10,558 [main] INFO  [org.apache.coyote.http11.Http11NioProtocol] DirectJDKLog.java:173 - Initializing ProtocolHandler ["http-nio-8055"]
2022-10-19 13:48:10,558 [main] INFO  [org.apache.catalina.core.StandardService] DirectJDKLog.java:173 - Starting service [Tomcat]
2022-10-19 13:48:10,559 [main] INFO  [org.apache.catalina.core.StandardEngine] DirectJDKLog.java:173 - Starting Servlet engine: [Apache Tomcat/9.0.65]
2022-10-19 13:48:10,652 [main] INFO  [o.a.c.core.ContainerBase.[Tomcat].[localhost].[/]] DirectJDKLog.java:173 - Initializing Spring embedded WebApplicationContext
2022-10-19 13:48:10,653 [main] INFO  [o.s.b.w.s.c.ServletWebServerApplicationContext] ServletWebServerApplicationContext.java:292 - Root WebApplicationContext: initialization completed in 778 ms
2022-10-19 13:48:11,102 [main] INFO  [o.s.b.a.web.servlet.WelcomePageHandlerMapping] WelcomePageHandlerMapping.java:53 - Adding welcome page: class path resource [static/index.html]
2022-10-19 13:48:11,155 [main] INFO  [c.s.a.common.push.util.ApplicationContextRegister] ApplicationContextRegister.java:27 - ApplicationContext register-->org.springframework.boot.web.servlet.context.AnnotationConfigServletWebServerApplicationContext@749c877b, started on Wed Oct 19 13:48:09 CST 2022
2022-10-19 13:48:11,358 [main] INFO  [org.yeauty.standard.ServerEndpointExporter] ServerEndpointExporter.java:131 - [34mNetty WebSocket started on port: 8056 with context path(s): '/websocket/{sid}' .[0m
2022-10-19 13:48:11,360 [main] INFO  [org.apache.coyote.http11.Http11NioProtocol] DirectJDKLog.java:173 - Starting ProtocolHandler ["http-nio-8055"]
2022-10-19 13:48:11,366 [main] INFO  [o.s.boot.web.embedded.tomcat.TomcatWebServer] TomcatWebServer.java:220 - Tomcat started on port(s): 8055 (http) with context path ''
2022-10-19 13:48:11,373 [main] INFO  [com.suke.axsc.web.WebApplication] StartupInfoLogger.java:61 - Started WebApplication in 1.866 seconds (JVM running for 2.293)
2022-10-19 13:48:11,375 [main] INFO  [com.suke.axsc.web.WebApplication] WebApplication.java:20 - æ¨æµæœåŠ¡å¯åŠ¨æˆåŠŸï¼šhttp://localhost:8055/index.html
2022-10-19 13:48:14,336 [http-nio-8055-exec-1] INFO  [o.a.c.core.ContainerBase.[Tomcat].[localhost].[/]] DirectJDKLog.java:173 - Initializing Spring DispatcherServlet 'dispatcherServlet'
2022-10-19 13:48:14,336 [http-nio-8055-exec-1] INFO  [org.springframework.web.servlet.DispatcherServlet] FrameworkServlet.java:525 - Initializing Servlet 'dispatcherServlet'
2022-10-19 13:48:14,336 [http-nio-8055-exec-1] INFO  [org.springframework.web.servlet.DispatcherServlet] FrameworkServlet.java:547 - Completed initialization in 0 ms
2022-10-19 13:48:14,565 [http-nio-8055-exec-3] INFO  [com.zaxxer.hikari.HikariDataSource] HikariDataSource.java:110 - HikariPool-1 - Starting...
2022-10-19 13:48:14,582 [nioEventLoopGroup-4-1] INFO  [com.suke.axsc.web.component.NettyWebSocketServer] NettyWebSocketServer.java:73 - NettyWebSocket[64259],è¿æ¥æˆåŠŸ
2022-10-19 13:48:14,665 [http-nio-8055-exec-3] INFO  [com.zaxxer.hikari.HikariDataSource] HikariDataSource.java:123 - HikariPool-1 - Start completed.
2022-10-19 13:48:18,413 [defaultEventExecutorGroup-2-1] INFO  [com.suke.axsc.common.push.util.ExecUtil] ExecUtil.java:91 - ä»»åŠ¡IDï¼šlive1,ä½¿ç”¨è¾“å‡ºçº¿ç¨‹ï¼šThread-12
2022-10-19 13:48:18,413 [Thread-12] INFO  [com.suke.axsc.common.push.handler.OutHandler] OutHandler.java:100 - live1å¼€å§‹æ¨æµï¼
2022-10-19 13:48:18,413 [defaultEventExecutorGroup-2-1] INFO  [com.suke.axsc.common.push.handler.TaskHandlerImpl] TaskHandlerImpl.java:39 - live1 æ‰§è¡Œå‘½ä»¤è¡Œï¼šJ:/rtsp_live/ffmpeg-master-latest-win64-gpl/bin/ffmpeg -fflags +genpts -rtsp_transport tcp -thread_queue_size 16 -i rtsp://admin:admin172839@192.168.0.209:1024/Streaming/Channels/101 -vcodec copy -f flv -an -s 640x480 rtmp://127.0.0.1:1935/hls/live1
2022-10-19 13:48:18,415 [defaultEventExecutorGroup-2-1] INFO  [com.suke.axsc.web.component.NettyWebSocketServer] NettyWebSocketServer.java:124 - NettyWebSocket[64259],è®¢é˜…[1]ç›´æ’­
2022-10-19 13:48:18,470 [Thread-12] INFO  [com.suke.axsc.web.handler.CustomOutHandlerMethod] CustomOutHandlerMethod.java:59 - live1æ—¥å¿—ï¼šffmpeg version N-108404-gc03f9654c9-20220927 Copyright (c) 2000-2022 the FFmpeg developers
2022-10-19 13:48:18,471 [Thread-12] INFO  [com.suke.axsc.web.handler.CustomOutHandlerMethod] CustomOutHandlerMethod.java:59 - live1æ—¥å¿—ï¼š  built with gcc 12.1.0 (crosstool-NG 1.25.0.55_3defb7b)
2022-10-19 13:48:18,471 [Thread-12] INFO  [com.suke.axsc.web.handler.CustomOutHandlerMethod] CustomOutHandlerMethod.java:59 - live1æ—¥å¿—ï¼š  configuration: --prefix=/ffbuild/prefix --pkg-config-flags=--static --pkg-config=pkg-config --cross-prefix=x86_64-w64-mingw32- --arch=x86_64 --target-os=mingw32 --enable-gpl --enable-version3 --disable-debug --disable-w32threads --enable-pthreads --enable-iconv --enable-libxml2 --enable-zlib --enable-libfreetype --enable-libfribidi --enable-gmp --enable-lzma --enable-fontconfig --enable-libvorbis --enable-opencl --disable-libpulse --enable-libvmaf --disable-libxcb --disable-xlib --enable-amf --enable-libaom --enable-libaribb24 --enable-avisynth --enable-libdav1d --enable-libdavs2 --disable-libfdk-aac --enable-ffnvcodec --enable-cuda-llvm --enable-frei0r --enable-libgme --enable-libkvazaar --enable-libass --enable-libbluray --enable-libjxl --enable-libmp3lame --enable-libopus --enable-librist --enable-libssh --enable-libtheora --enable-libvpx --enable-libwebp --enable-lv2 --enable-libmfx --enable-libopencore-amrnb --enable-libopencore-amrwb --enable-libopenh264 --enable-libopenjpeg --enable-libopenmpt --enable-librav1e --enable-librubberband --enable-schannel --enable-sdl2 --enable-libsoxr --enable-libsrt --enable-libsvtav1 --enable-libtwolame --enable-libuavs3d --disable-libdrm --disable-vaapi --enable-libvidstab --enable-vulkan --enable-libshaderc --enable-libplacebo --enable-libx264 --enable-libx265 --enable-libxavs2 --enable-libxvid --enable-libzimg --enable-libzvbi --extra-cflags=-DLIBTWOLAME_STATIC --extra-cxxflags= --extra-ldflags=-pthread --extra-ldexeflags= --extra-libs=-lgomp --extra-version=20220927
2022-10-19 13:48:18,471 [Thread-12] INFO  [com.suke.axsc.web.handler.CustomOutHandlerMethod] CustomOutHandlerMethod.java:59 - live1æ—¥å¿—ï¼š  libavutil      57. 37.100 / 57. 37.100
2022-10-19 13:48:18,471 [Thread-12] INFO  [com.suke.axsc.web.handler.CustomOutHandlerMethod] CustomOutHandlerMethod.java:59 - live1æ—¥å¿—ï¼š  libavcodec     59. 48.100 / 59. 48.100
2022-10-19 13:48:18,472 [Thread-12] INFO  [com.suke.axsc.web.handler.CustomOutHandlerMethod] CustomOutHandlerMethod.java:59 - live1æ—¥å¿—ï¼š  libavformat    59. 33.100 / 59. 33.100
2022-10-19 13:48:18,472 [Thread-12] INFO  [com.suke.axsc.web.handler.CustomOutHandlerMethod] CustomOutHandlerMethod.java:59 - live1æ—¥å¿—ï¼š  libavdevice    59.  8.101 / 59.  8.101
2022-10-19 13:48:18,472 [Thread-12] INFO  [com.suke.axsc.web.handler.CustomOutHandlerMethod] CustomOutHandlerMethod.java:59 - live1æ—¥å¿—ï¼š  libavfilter     8. 49.100 /  8. 49.100
2022-10-19 13:48:18,472 [Thread-12] INFO  [com.suke.axsc.web.handler.CustomOutHandlerMethod] CustomOutHandlerMethod.java:59 - live1æ—¥å¿—ï¼š  libswscale      6.  8.112 /  6.  8.112
2022-10-19 13:48:18,473 [Thread-12] INFO  [com.suke.axsc.web.handler.CustomOutHandlerMethod] CustomOutHandlerMethod.java:59 - live1æ—¥å¿—ï¼š  libswresample   4.  9.100 /  4.  9.100
2022-10-19 13:48:18,473 [Thread-12] INFO  [com.suke.axsc.web.handler.CustomOutHandlerMethod] CustomOutHandlerMethod.java:59 - live1æ—¥å¿—ï¼š  libpostproc    56.  7.100 / 56.  7.100
2022-10-19 13:48:23,916 [Thread-12] INFO  [com.suke.axsc.web.handler.CustomOutHandlerMethod] CustomOutHandlerMethod.java:59 - live1æ—¥å¿—ï¼š[rtsp @ 00000282e2182c00] Could not find codec parameters for stream 1 (Audio: none, 16000 Hz, mono): unknown codec
2022-10-19 13:48:23,917 [Thread-12] INFO  [com.suke.axsc.web.handler.CustomOutHandlerMethod] CustomOutHandlerMethod.java:59 - live1æ—¥å¿—ï¼šConsider increasing the value for the 'analyzeduration' (0) and 'probesize' (5000000) options
2022-10-19 13:48:23,918 [Thread-12] INFO  [com.suke.axsc.web.handler.CustomOutHandlerMethod] CustomOutHandlerMethod.java:59 - live1æ—¥å¿—ï¼š  Metadata:
2022-10-19 13:48:23,918 [Thread-12] INFO  [com.suke.axsc.web.handler.CustomOutHandlerMethod] CustomOutHandlerMethod.java:59 - live1æ—¥å¿—ï¼š    title           : HIK Media Server V3.3.11
2022-10-19 13:48:23,918 [Thread-12] INFO  [com.suke.axsc.web.handler.CustomOutHandlerMethod] CustomOutHandlerMethod.java:59 - live1æ—¥å¿—ï¼š    comment         : HIK Media Server Session Description : standard
2022-10-19 13:48:23,919 [Thread-12] INFO  [com.suke.axsc.web.handler.CustomOutHandlerMethod] CustomOutHandlerMethod.java:59 - live1æ—¥å¿—ï¼š  Duration: N/A, start: 0.040000, bitrate: N/A
2022-10-19 13:48:23,919 [Thread-12] INFO  [com.suke.axsc.web.handler.CustomOutHandlerMethod] CustomOutHandlerMethod.java:59 - live1æ—¥å¿—ï¼š  Stream #0:0: Video: h264 (Main), yuvj420p(pc, bt709, progressive), 1920x1080, 25 fps, 25 tbr, 90k tbn
2022-10-19 13:48:23,919 [Thread-12] INFO  [com.suke.axsc.web.handler.CustomOutHandlerMethod] CustomOutHandlerMethod.java:59 - live1æ—¥å¿—ï¼šOutput #0, flv, to 'rtmp://127.0.0.1:1935/hls/live1':
2022-10-19 13:48:23,919 [Thread-12] INFO  [com.suke.axsc.web.handler.CustomOutHandlerMethod] CustomOutHandlerMethod.java:59 - live1æ—¥å¿—ï¼š  Metadata:
2022-10-19 13:48:23,920 [Thread-12] INFO  [com.suke.axsc.web.handler.CustomOutHandlerMethod] CustomOutHandlerMethod.java:59 - live1æ—¥å¿—ï¼š    title           : HIK Media Server V3.3.11
2022-10-19 13:48:23,920 [Thread-12] INFO  [com.suke.axsc.web.handler.CustomOutHandlerMethod] CustomOutHandlerMethod.java:59 - live1æ—¥å¿—ï¼š    comment         : HIK Media Server Session Description : standard
2022-10-19 13:48:23,921 [Thread-12] INFO  [com.suke.axsc.web.handler.CustomOutHandlerMethod] CustomOutHandlerMethod.java:59 - live1æ—¥å¿—ï¼š    encoder         : Lavf59.33.100
2022-10-19 13:48:23,921 [Thread-12] INFO  [com.suke.axsc.web.handler.CustomOutHandlerMethod] CustomOutHandlerMethod.java:59 - live1æ—¥å¿—ï¼š  Stream #0:0: Video: h264 (Main) ([7][0][0][0] / 0x0007), yuvj420p(pc, bt709, progressive), 1920x1080, q=2-31, 25 fps, 25 tbr, 1k tbn
2022-10-19 13:48:23,921 [Thread-12] INFO  [com.suke.axsc.web.handler.CustomOutHandlerMethod] CustomOutHandlerMethod.java:59 - live1æ—¥å¿—ï¼šStream mapping:
2022-10-19 13:48:23,921 [Thread-12] INFO  [com.suke.axsc.web.handler.CustomOutHandlerMethod] CustomOutHandlerMethod.java:59 - live1æ—¥å¿—ï¼š  Stream #0:0 -> #0:0 (copy)
2022-10-19 13:48:23,922 [Thread-12] INFO  [com.suke.axsc.web.handler.CustomOutHandlerMethod] CustomOutHandlerMethod.java:59 - live1æ—¥å¿—ï¼šPress [q] to stop, [?] for help
2022-10-19 13:48:23,929 [Thread-12] INFO  [com.suke.axsc.web.handler.CustomOutHandlerMethod] CustomOutHandlerMethod.java:59 - live1æ—¥å¿—ï¼š[rtsp @ 00000282e2182c00] Thread message queue blocking; consider raising the thread_queue_size option (current value: 16)
